<?xml version="1.0" standalone="no"?>
 <!DOCTYPE svg PUBLIC "-//W3C//DTD SVG 1.1//EN" 
 "http://www.w3.org/Graphics/SVG/1.1/DTD/svg11.dtd"> 
<svg
  xmlns:svg="http://www.w3.org/2000/svg"
  xmlns="http://www.w3.org/2000/svg"
  xmlns:xlink="http://www.w3.org/1999/xlink"
  version="1.1"
  width="66.9798mm" height="150.4188mm" viewBox="0.0000 0.0000 66.9798 150.4188">
<title>SVG Image created as monad_panel_rev3_working-F_Silkscreen.svg date 2024/08/02 23:47:47 </title>
  <desc>Image generated by PCBNEW </desc>
<g style="fill:#000000; fill-opacity:1.0000;stroke:#000000; stroke-opacity:1.0000;
stroke-linecap:round; stroke-linejoin:round;"
 transform="translate(0 0) scale(1 1)">
</g>
<g style="fill:#000000; fill-opacity:0.0; 
stroke:#000000; stroke-width:0.0000; stroke-opacity:1; 
stroke-linecap:round; stroke-linejoin:round;">
</g>
<g style="fill:#000000; fill-opacity:1.0000; 
stroke:#000000; stroke-width:0.0000; stroke-opacity:1; 
stroke-linecap:round; stroke-linejoin:round;">
<circle cx="50.6000" cy="98.3440" r="0.1500" /> 
<circle cx="50.6000" cy="97.1440" r="0.1500" /> 
<circle cx="50.6000" cy="95.9440" r="0.1500" /> 
<circle cx="50.6000" cy="94.7440" r="0.1500" /> 
<circle cx="50.6000" cy="93.5440" r="0.1500" /> 
<circle cx="50.6000" cy="92.3440" r="0.1500" /> 
<circle cx="50.6000" cy="91.1440" r="0.1500" /> 
<circle cx="50.6000" cy="89.9440" r="0.1500" /> 
<circle cx="50.6000" cy="88.7440" r="0.1500" /> 
<circle cx="50.6000" cy="87.5440" r="0.1500" /> 
<circle cx="50.6000" cy="86.3440" r="0.1500" /> 
<circle cx="50.6000" cy="85.1440" r="0.1500" /> 
<circle cx="50.6000" cy="83.9440" r="0.1500" /> 
<circle cx="50.6000" cy="82.7440" r="0.1500" /> 
<circle cx="50.6000" cy="81.5440" r="0.1500" /> 
<circle cx="50.6000" cy="80.3440" r="0.1500" /> 
<circle cx="23.6054" cy="84.1053" r="0.1500" /> 
<circle cx="23.8005" cy="82.9225" r="0.1500" /> 
<circle cx="24.1810" cy="81.7858" r="0.1500" /> 
<circle cx="24.7373" cy="80.7239" r="0.1500" /> 
<circle cx="50.6000" cy="79.3440" r="6.1000" /> 
<circle cx="10.0500" cy="110.7740" r="0.1500" /> 
<circle cx="10.0500" cy="109.5740" r="0.1500" /> 
<circle cx="10.0500" cy="108.3740" r="0.1500" /> 
<circle cx="10.0500" cy="107.1740" r="0.1500" /> 
<circle cx="10.0500" cy="105.9740" r="0.1500" /> 
<circle cx="10.0500" cy="104.7740" r="0.1500" /> 
<circle cx="10.0500" cy="103.5740" r="0.1500" /> 
<circle cx="10.0500" cy="102.3740" r="0.1500" /> 
<circle cx="10.0500" cy="101.1740" r="0.1500" /> 
<circle cx="10.0500" cy="99.9740" r="0.1500" /> 
<circle cx="23.5500" cy="115.0940" r="0.1500" /> 
<circle cx="23.5516" cy="113.8940" r="0.1500" /> 
<circle cx="23.5532" cy="112.6940" r="0.1500" /> 
<circle cx="23.5547" cy="111.4940" r="0.1500" /> 
<circle cx="23.5563" cy="110.2940" r="0.1500" /> 
<circle cx="23.5579" cy="109.0940" r="0.1500" /> 
<circle cx="23.5595" cy="107.8940" r="0.1500" /> 
<circle cx="23.5611" cy="106.6940" r="0.1500" /> 
<circle cx="23.5627" cy="105.4940" r="0.1500" /> 
<circle cx="23.5642" cy="104.2940" r="0.1500" /> 
<circle cx="23.5658" cy="103.0940" r="0.1500" /> 
<circle cx="23.5674" cy="101.8940" r="0.1500" /> 
<circle cx="23.5690" cy="100.6940" r="0.1500" /> 
<circle cx="23.5706" cy="99.4940" r="0.1500" /> 
<circle cx="23.5722" cy="98.2940" r="0.1500" /> 
<circle cx="23.5737" cy="97.0940" r="0.1500" /> 
<circle cx="23.5753" cy="95.8940" r="0.1500" /> 
<circle cx="23.5769" cy="94.6940" r="0.1500" /> 
<circle cx="23.5785" cy="93.4940" r="0.1500" /> 
<circle cx="23.5801" cy="92.2940" r="0.1500" /> 
<circle cx="23.5817" cy="91.0940" r="0.1500" /> 
<circle cx="23.5832" cy="89.8940" r="0.1500" /> 
<circle cx="23.5848" cy="88.6940" r="0.1500" /> 
<circle cx="23.5864" cy="87.4940" r="0.1500" /> 
<circle cx="23.5880" cy="86.2940" r="0.1500" /> 
<circle cx="23.5896" cy="85.0940" r="0.1500" /> 
</g>
<g style="fill:#000000; fill-opacity:1.0000; 
stroke:#000000; stroke-width:0.3000; stroke-opacity:1; 
stroke-linecap:round; stroke-linejoin:round;">
</g>
<g style="fill:#000000; fill-opacity:0.0; 
stroke:#000000; stroke-width:0.3000; stroke-opacity:1; 
stroke-linecap:round; stroke-linejoin:round;">
<text x="10.2100" y="124.4720"
textLength="4.8844" font-size="2.0000" lengthAdjust="spacingAndGlyphs"
text-anchor="middle" opacity="0">PWM</text>
<g class="stroked-text"><desc>PWM</desc>
</g>
<g style="fill:#000000; fill-opacity:1.0000; 
stroke:#000000; stroke-width:0.0000; stroke-opacity:1; 
stroke-linecap:round; stroke-linejoin:round;">
<path style="fill:#000000; fill-opacity:1.0000; 
stroke:#000000; stroke-width:0.0000; stroke-opacity:1; 
stroke-linecap:round; stroke-linejoin:round;fill-rule:evenodd;"
d="M 8.5500,122.8444
8.5779,122.8463
8.6050,122.8493
8.6313,122.8535
8.6569,122.8587
8.6817,122.8651
8.7057,122.8725
8.7289,122.8810
8.7513,122.8905
8.7728,122.9009
8.7935,122.9122
8.8134,122.9245
8.8324,122.9377
8.8506,122.9517
8.8678,122.9665
8.8842,122.9820
8.8996,122.9984
8.9142,123.0155
8.9278,123.0332
8.9405,123.0516
8.9522,123.0707
8.9629,123.0903
8.9727,123.1106
8.9816,123.1313
8.9894,123.1526
8.9962,123.1743
9.0020,123.1965
9.0067,123.2191
9.0105,123.2421
9.0131,123.2655
9.0147,123.2892
9.0153,123.3131
9.0147,123.3371
9.0131,123.3607
9.0105,123.3841
9.0067,123.4070
9.0020,123.4296
8.9962,123.4518
8.9894,123.4735
8.9816,123.4947
8.9727,123.5154
8.9629,123.5356
8.9522,123.5552
8.9405,123.5743
8.9278,123.5927
8.9142,123.6104
8.8996,123.6274
8.8842,123.6437
8.8678,123.6593
8.8506,123.6741
8.8324,123.6881
8.8134,123.7012
8.7935,123.7134
8.7728,123.7248
8.7513,123.7352
8.7289,123.7446
8.7057,123.7531
8.6817,123.7605
8.6569,123.7669
8.6313,123.7721
8.6050,123.7763
8.5779,123.7793
8.5500,123.7811
8.5214,123.7817
8.2338,123.7817
8.2338,124.3445
7.9418,124.3445
7.9418,123.1043
8.2338,123.1043
8.2338,123.5194
8.5068,123.5194
8.5310,123.5184
8.5540,123.5156
8.5759,123.5109
8.5964,123.5045
8.6156,123.4964
8.6334,123.4866
8.6498,123.4753
8.6646,123.4624
8.6779,123.4482
8.6897,123.4325
8.6997,123.4155
8.7081,123.3973
8.7146,123.3779
8.7194,123.3574
8.7223,123.3357
8.7233,123.3131
8.7223,123.2905
8.7194,123.2687
8.7146,123.2480
8.7081,123.2284
8.6997,123.2100
8.6897,123.1928
8.6779,123.1769
8.6646,123.1624
8.6498,123.1494
8.6334,123.1378
8.6156,123.1279
8.5964,123.1196
8.5759,123.1130
8.5540,123.1082
8.5310,123.1053
8.5068,123.1043
8.2338,123.1043
7.9418,123.1043
7.9418,122.8438
8.5214,122.8438
Z" /> 
<path style="fill:#000000; fill-opacity:1.0000; 
stroke:#000000; stroke-width:0.0000; stroke-opacity:1; 
stroke-linecap:round; stroke-linejoin:round;fill-rule:evenodd;"
d="M 10.9369,122.8438
10.6324,122.8438
10.3990,123.7902
10.1261,122.8438
9.9077,122.8438
9.6348,123.7902
9.4036,122.8438
9.0992,122.8438
9.4982,124.3445
9.7418,124.3445
10.0169,123.4340
10.2921,124.3445
10.5357,124.3445
Z" /> 
<path style="fill:#000000; fill-opacity:1.0000; 
stroke:#000000; stroke-width:0.0000; stroke-opacity:1; 
stroke-linecap:round; stroke-linejoin:round;fill-rule:evenodd;"
d="M 12.4782,124.3445
12.4782,122.8438
12.1902,122.8438
11.8019,123.6553
11.4113,122.8438
11.1233,122.8438
11.1233,124.3445
11.4153,124.3445
11.4153,123.4699
11.7029,124.0389
11.9004,124.0389
12.1862,123.4699
12.1862,124.3445
Z" /> 
</g></g>
<g style="fill:#000000; fill-opacity:1.0000; 
stroke:#000000; stroke-width:0.3000; stroke-opacity:1; 
stroke-linecap:round; stroke-linejoin:round;">
</g>
<g style="fill:#000000; fill-opacity:0.0; 
stroke:#000000; stroke-width:0.3000; stroke-opacity:1; 
stroke-linecap:round; stroke-linejoin:round;">
<text x="10.2000" y="87.5940"
textLength="6.4803" font-size="2.0000" lengthAdjust="spacingAndGlyphs"
text-anchor="middle" opacity="0">WIDTH</text>
<g class="stroked-text"><desc>WIDTH</desc>
</g>
<g style="fill:#000000; fill-opacity:1.0000; 
stroke:#000000; stroke-width:0.0000; stroke-opacity:1; 
stroke-linecap:round; stroke-linejoin:round;">
<path style="fill:#000000; fill-opacity:1.0000; 
stroke:#000000; stroke-width:0.0000; stroke-opacity:1; 
stroke-linecap:round; stroke-linejoin:round;fill-rule:evenodd;"
d="M 8.8100,85.9658
8.5056,85.9658
8.2722,86.9122
7.9992,85.9658
7.7809,85.9658
7.5080,86.9122
7.2768,85.9658
6.9723,85.9658
7.3713,87.4665
7.6149,87.4665
7.8901,86.5560
8.1652,87.4665
8.4088,87.4665
Z" /> 
<path style="fill:#000000; fill-opacity:1.0000; 
stroke:#000000; stroke-width:0.0000; stroke-opacity:1; 
stroke-linecap:round; stroke-linejoin:round;fill-rule:evenodd;"
d="M 9.2885,87.4665
9.2885,85.9658
8.9965,85.9658
8.9965,87.4665
Z" /> 
<path style="fill:#000000; fill-opacity:1.0000; 
stroke:#000000; stroke-width:0.0000; stroke-opacity:1; 
stroke-linecap:round; stroke-linejoin:round;fill-rule:evenodd;"
d="M 10.2059,85.9664
10.2344,85.9679
10.2626,85.9706
10.2902,85.9743
10.3174,85.9791
10.3440,85.9851
10.3701,85.9921
10.3955,86.0003
10.4203,86.0097
10.4443,86.0202
10.4676,86.0319
10.4901,86.0448
10.5118,86.0589
10.5326,86.0743
10.5525,86.0909
10.5715,86.1087
10.5867,86.1246
10.6009,86.1408
10.6141,86.1571
10.6263,86.1737
10.6375,86.1905
10.6479,86.2074
10.6574,86.2246
10.6661,86.2420
10.6740,86.2596
10.6811,86.2774
10.6875,86.2953
10.6933,86.3135
10.6984,86.3318
10.7029,86.3503
10.7068,86.3690
10.7102,86.3879
10.7131,86.4069
10.7156,86.4261
10.7176,86.4454
10.7193,86.4650
10.7206,86.4846
10.7216,86.5044
10.7223,86.5244
10.7228,86.5445
10.7231,86.5647
10.7232,86.5851
10.7233,86.6056
10.7232,86.6262
10.7231,86.6470
10.7229,86.6678
10.7228,86.6888
10.7228,86.7099
10.7228,86.7311
10.7229,86.7522
10.7231,86.7733
10.7232,86.7943
10.7233,86.8152
10.7232,86.8361
10.7231,86.8569
10.7228,86.8775
10.7223,86.8981
10.7216,86.9186
10.7206,86.9389
10.7193,86.9591
10.7176,86.9792
10.7156,86.9991
10.7131,87.0189
10.7102,87.0385
10.7068,87.0580
10.7029,87.0772
10.6984,87.0963
10.6933,87.1152
10.6875,87.1339
10.6811,87.1524
10.6740,87.1707
10.6661,87.1887
10.6574,87.2065
10.6479,87.2241
10.6375,87.2414
10.6263,87.2584
10.6141,87.2752
10.6009,87.2918
10.5867,87.3080
10.5715,87.3239
10.5525,87.3418
10.5326,87.3584
10.5118,87.3737
10.4901,87.3878
10.4676,87.4007
10.4443,87.4123
10.4203,87.4228
10.3955,87.4322
10.3701,87.4403
10.3440,87.4474
10.3174,87.4533
10.2902,87.4581
10.2626,87.4618
10.2344,87.4644
10.2059,87.4659
10.1769,87.4665
9.6369,87.4665
9.6369,86.2263
9.9289,86.2263
9.9289,87.2063
10.1494,87.2063
10.1588,87.2062
10.1769,87.2055
10.1943,87.2040
10.2109,87.2018
10.2269,87.1988
10.2422,87.1951
10.2568,87.1907
10.2708,87.1856
10.2907,87.1765
10.3093,87.1659
10.3267,87.1536
10.3429,87.1398
10.3582,87.1244
10.3678,87.1133
10.3728,87.1068
10.3820,87.0932
10.3901,87.0784
10.3974,87.0624
10.4037,87.0451
10.4093,87.0262
10.4140,87.0058
10.4180,86.9837
10.4214,86.9597
10.4241,86.9338
10.4263,86.9058
10.4272,86.8910
10.4280,86.8757
10.4286,86.8598
10.4292,86.8432
10.4297,86.8261
10.4300,86.8084
10.4303,86.7900
10.4306,86.7710
10.4307,86.7513
10.4308,86.7310
10.4308,86.7099
10.4308,86.6889
10.4307,86.6687
10.4306,86.6492
10.4303,86.6305
10.4300,86.6124
10.4297,86.5950
10.4292,86.5783
10.4286,86.5622
10.4280,86.5468
10.4272,86.5319
10.4253,86.5040
10.4228,86.4782
10.4198,86.4545
10.4161,86.4326
10.4117,86.4125
10.4066,86.3939
10.4007,86.3768
10.3939,86.3609
10.3862,86.3462
10.3775,86.3324
10.3678,86.3194
10.3630,86.3137
10.3481,86.2978
10.3322,86.2835
10.3152,86.2707
10.2970,86.2595
10.2776,86.2499
10.2639,86.2444
10.2496,86.2396
10.2346,86.2356
10.2190,86.2323
10.2027,86.2297
10.1857,86.2278
10.1679,86.2267
10.1494,86.2263
9.9289,86.2263
9.6369,86.2263
9.6369,85.9658
10.1769,85.9658
Z" /> 
<path style="fill:#000000; fill-opacity:1.0000; 
stroke:#000000; stroke-width:0.0000; stroke-opacity:1; 
stroke-linecap:round; stroke-linejoin:round;fill-rule:evenodd;"
d="M 11.9399,86.2263
11.9399,85.9658
10.8664,85.9658
10.8664,86.2263
11.2573,86.2263
11.2573,87.4665
11.5493,87.4665
11.5493,86.2263
Z" /> 
<path style="fill:#000000; fill-opacity:1.0000; 
stroke:#000000; stroke-width:0.0000; stroke-opacity:1; 
stroke-linecap:round; stroke-linejoin:round;fill-rule:evenodd;"
d="M 13.2665,87.4665
13.2665,85.9658
12.9748,85.9658
12.9748,86.5755
12.4685,86.5755
12.4685,85.9658
12.1765,85.9658
12.1765,87.4665
12.4685,87.4665
12.4685,86.8341
12.9748,86.8341
12.9748,87.4665
Z" /> 
</g></g>
<g style="fill:#000000; fill-opacity:1.0000; 
stroke:#000000; stroke-width:0.3000; stroke-opacity:1; 
stroke-linecap:round; stroke-linejoin:round;">
</g>
<g style="fill:#000000; fill-opacity:0.0; 
stroke:#000000; stroke-width:0.3000; stroke-opacity:1; 
stroke-linecap:round; stroke-linejoin:round;">
<text x="8.9400" y="47.2560"
textLength="5.1921" font-size="2.0000" lengthAdjust="spacingAndGlyphs"
text-anchor="middle" opacity="0">SYNC</text>
<g class="stroked-text"><desc>SYNC</desc>
</g>
<g style="fill:#000000; fill-opacity:1.0000; 
stroke:#000000; stroke-width:0.0000; stroke-opacity:1; 
stroke-linecap:round; stroke-linejoin:round;">
<path style="fill:#000000; fill-opacity:1.0000; 
stroke:#000000; stroke-width:0.0000; stroke-opacity:1; 
stroke-linecap:round; stroke-linejoin:round;fill-rule:evenodd;"
d="M 7.4841,46.6976
7.4836,46.6730
7.4824,46.6490
7.4803,46.6255
7.4773,46.6026
7.4734,46.5804
7.4686,46.5587
7.4629,46.5377
7.4563,46.5173
7.4488,46.4976
7.4403,46.4786
7.4308,46.4603
7.4204,46.4426
7.4090,46.4258
7.3966,46.4096
7.3831,46.3942
7.3687,46.3796
7.3566,46.3688
7.3439,46.3585
7.3306,46.3486
7.3166,46.3393
7.3020,46.3304
7.2866,46.3220
7.2704,46.3140
7.2534,46.3066
7.2355,46.2996
7.2168,46.2930
7.1970,46.2870
7.1763,46.2814
7.1546,46.2762
7.1318,46.2715
7.1079,46.2673
7.0829,46.2635
6.9067,46.2382
6.8899,46.2354
6.8738,46.2320
6.8585,46.2278
6.8438,46.2231
6.8300,46.2177
6.8128,46.2098
6.7972,46.2011
6.7831,46.1917
6.7707,46.1818
6.7678,46.1792
6.7569,46.1677
6.7477,46.1554
6.7401,46.1423
6.7340,46.1287
6.7295,46.1147
6.7257,46.0969
6.7240,46.0790
6.7239,46.0719
6.7247,46.0527
6.7274,46.0341
6.7319,46.0160
6.7381,45.9986
6.7461,45.9821
6.7560,45.9664
6.7676,45.9518
6.7811,45.9382
6.7963,45.9259
6.8135,45.9149
6.8324,45.9053
6.8532,45.8972
6.8759,45.8907
6.9004,45.8860
6.9268,45.8831
6.9550,45.8821
6.9737,45.8823
6.9926,45.8828
7.0118,45.8839
7.0312,45.8855
7.0508,45.8878
7.0704,45.8909
7.0902,45.8949
7.1099,45.8998
7.1295,45.9058
7.1491,45.9129
7.1685,45.9213
7.1878,45.9311
7.2067,45.9423
7.2254,45.9550
7.2437,45.9693
7.2617,45.9854
7.4463,45.8022
7.4342,45.7908
7.4220,45.7799
7.4097,45.7693
7.3972,45.7592
7.3846,45.7495
7.3718,45.7401
7.3588,45.7312
7.3457,45.7227
7.3324,45.7146
7.3189,45.7069
7.3053,45.6996
7.2914,45.6926
7.2773,45.6861
7.2631,45.6799
7.2486,45.6740
7.2339,45.6686
7.2190,45.6635
7.2038,45.6588
7.1884,45.6544
7.1728,45.6504
7.1569,45.6467
7.1407,45.6433
7.1243,45.6403
7.1076,45.6377
7.0906,45.6353
7.0734,45.6333
7.0558,45.6316
7.0380,45.6302
7.0198,45.6292
7.0013,45.6284
6.9826,45.6280
6.9635,45.6278
6.9335,45.6284
6.9043,45.6300
6.8759,45.6327
6.8482,45.6364
6.8213,45.6411
6.7953,45.6469
6.7700,45.6536
6.7456,45.6613
6.7220,45.6699
6.6993,45.6794
6.6774,45.6899
6.6565,45.7012
6.6364,45.7134
6.6172,45.7264
6.5990,45.7402
6.5817,45.7549
6.5653,45.7703
6.5499,45.7865
6.5355,45.8034
6.5220,45.8211
6.5096,45.8395
6.4982,45.8585
6.4878,45.8783
6.4784,45.8986
6.4701,45.9196
6.4629,45.9412
6.4567,45.9634
6.4516,45.9862
6.4476,46.0095
6.4448,46.0333
6.4431,46.0577
6.4425,46.0825
6.4429,46.1058
6.4442,46.1285
6.4462,46.1505
6.4492,46.1718
6.4529,46.1924
6.4575,46.2124
6.4629,46.2317
6.4692,46.2504
6.4763,46.2685
6.4842,46.2859
6.4930,46.3027
6.5026,46.3188
6.5131,46.3344
6.5244,46.3493
6.5365,46.3637
6.5495,46.3774
6.5624,46.3894
6.5760,46.4007
6.5903,46.4115
6.6052,46.4217
6.6208,46.4314
6.6371,46.4404
6.6540,46.4490
6.6717,46.4570
6.6901,46.4644
6.7092,46.4713
6.7290,46.4777
6.7495,46.4835
6.7708,46.4888
6.7929,46.4936
6.8157,46.4979
6.8393,46.5016
7.0199,46.5269
7.0385,46.5300
7.0554,46.5334
7.0707,46.5370
7.0889,46.5424
7.1049,46.5486
7.1192,46.5555
7.1320,46.5634
7.1438,46.5723
7.1521,46.5796
7.1632,46.5914
7.1727,46.6045
7.1807,46.6189
7.1872,46.6343
7.1923,46.6509
7.1958,46.6684
7.1980,46.6868
7.1987,46.7060
7.1976,46.7279
7.1944,46.7485
7.1890,46.7678
7.1815,46.7858
7.1719,46.8024
7.1603,46.8176
7.1465,46.8315
7.1308,46.8440
7.1130,46.8551
7.0933,46.8647
7.0715,46.8729
7.0478,46.8797
7.0222,46.8849
6.9946,46.8887
6.9651,46.8910
6.9497,46.8916
6.9338,46.8918
6.9079,46.8914
6.8824,46.8902
6.8571,46.8882
6.8322,46.8853
6.8077,46.8815
6.7836,46.8767
6.7599,46.8709
6.7367,46.8640
6.7140,46.8561
6.6919,46.8469
6.6703,46.8366
6.6494,46.8250
6.6291,46.8122
6.6095,46.7980
6.5907,46.7824
6.5726,46.7654
6.3835,46.9548
6.3974,46.9685
6.4114,46.9816
6.4256,46.9941
6.4400,47.0061
6.4545,47.0175
6.4692,47.0284
6.4840,47.0387
6.4991,47.0485
6.5143,47.0578
6.5298,47.0666
6.5454,47.0749
6.5613,47.0827
6.5773,47.0900
6.5936,47.0969
6.6101,47.1033
6.6268,47.1093
6.6438,47.1148
6.6610,47.1199
6.6784,47.1246
6.6961,47.1289
6.7140,47.1327
6.7322,47.1362
6.7507,47.1393
6.7694,47.1421
6.7885,47.1445
6.8078,47.1465
6.8273,47.1482
6.8472,47.1496
6.8674,47.1506
6.8879,47.1513
6.9087,47.1518
6.9298,47.1519
6.9589,47.1514
6.9875,47.1500
7.0157,47.1476
7.0434,47.1443
7.0705,47.1401
7.0971,47.1349
7.1230,47.1288
7.1484,47.1218
7.1730,47.1139
7.1970,47.1051
7.2202,47.0954
7.2426,47.0848
7.2643,47.0733
7.2851,47.0610
7.3051,47.0478
7.3242,47.0337
7.3424,47.0188
7.3597,47.0030
7.3759,46.9865
7.3912,46.9690
7.4054,46.9508
7.4185,46.9317
7.4306,46.9118
7.4415,46.8912
7.4512,46.8697
7.4597,46.8474
7.4670,46.8244
7.4731,46.8006
7.4778,46.7760
7.4813,46.7506
7.4834,46.7245
Z" /> 
<path style="fill:#000000; fill-opacity:1.0000; 
stroke:#000000; stroke-width:0.0000; stroke-opacity:1; 
stroke-linecap:round; stroke-linejoin:round;fill-rule:evenodd;"
d="M 8.7374,45.6278
8.4205,45.6278
8.1454,46.2331
7.8658,45.6278
7.5489,45.6278
7.9981,46.5133
7.9981,47.1285
8.2882,47.1285
8.2882,46.5133
Z" /> 
<path style="fill:#000000; fill-opacity:1.0000; 
stroke:#000000; stroke-width:0.0000; stroke-opacity:1; 
stroke-linecap:round; stroke-linejoin:round;fill-rule:evenodd;"
d="M 10.0614,47.1285
10.0614,45.6278
9.7698,45.6278
9.7698,46.5470
9.1774,45.6278
8.9169,45.6278
8.9169,47.1285
9.2089,47.1285
9.2089,46.2074
9.8013,47.1285
Z" /> 
<path style="fill:#000000; fill-opacity:1.0000; 
stroke:#000000; stroke-width:0.0000; stroke-opacity:1; 
stroke-linecap:round; stroke-linejoin:round;fill-rule:evenodd;"
d="M 11.4591,46.6789
11.1627,46.6789
11.1563,46.7025
11.1486,46.7250
11.1398,46.7463
11.1298,46.7664
11.1186,46.7853
11.1062,46.8028
11.0926,46.8189
11.0776,46.8336
11.0614,46.8467
11.0439,46.8583
11.0251,46.8683
11.0050,46.8766
10.9835,46.8832
10.9606,46.8879
10.9363,46.8908
10.9107,46.8918
10.8960,46.8915
10.8746,46.8899
10.8542,46.8870
10.8346,46.8827
10.8160,46.8771
10.7983,46.8701
10.7815,46.8616
10.7656,46.8518
10.7507,46.8405
10.7368,46.8279
10.7238,46.8138
10.7130,46.8014
10.7032,46.7886
10.6945,46.7752
10.6867,46.7608
10.6799,46.7450
10.6739,46.7275
10.6688,46.7081
10.6644,46.6863
10.6607,46.6619
10.6577,46.6345
10.6564,46.6196
10.6553,46.6039
10.6543,46.5872
10.6535,46.5696
10.6527,46.5510
10.6521,46.5314
10.6516,46.5107
10.6512,46.4889
10.6509,46.4660
10.6507,46.4418
10.6506,46.4165
10.6506,46.3899
10.6506,46.3633
10.6507,46.3380
10.6509,46.3139
10.6512,46.2909
10.6516,46.2692
10.6521,46.2485
10.6527,46.2289
10.6535,46.2103
10.6543,46.1927
10.6553,46.1760
10.6564,46.1603
10.6577,46.1454
10.6607,46.1180
10.6644,46.0936
10.6688,46.0719
10.6739,46.0524
10.6799,46.0350
10.6867,46.0192
10.6945,46.0048
10.7032,45.9914
10.7130,45.9787
10.7238,45.9664
10.7368,45.9522
10.7507,45.9396
10.7656,45.9283
10.7815,45.9185
10.7983,45.9101
10.8160,45.9030
10.8346,45.8974
10.8542,45.8931
10.8746,45.8902
10.8960,45.8886
10.9107,45.8883
10.9363,45.8893
10.9606,45.8922
10.9835,45.8969
11.0050,45.9035
11.0251,45.9118
11.0439,45.9218
11.0614,45.9334
11.0776,45.9465
11.0926,45.9612
11.1062,45.9773
11.1186,45.9948
11.1298,46.0137
11.1398,46.0338
11.1486,46.0551
11.1563,46.0776
11.1627,46.1012
11.4591,46.1012
11.4539,46.0730
11.4478,46.0456
11.4407,46.0190
11.4328,45.9932
11.4239,45.9683
11.4142,45.9442
11.4036,45.9209
11.3923,45.8985
11.3800,45.8769
11.3670,45.8562
11.3532,45.8363
11.3386,45.8173
11.3233,45.7992
11.3072,45.7819
11.2904,45.7655
11.2729,45.7501
11.2547,45.7355
11.2358,45.7218
11.2162,45.7090
11.1960,45.6971
11.1752,45.6862
11.1537,45.6761
11.1317,45.6670
11.1090,45.6589
11.0858,45.6516
11.0621,45.6454
11.0378,45.6400
11.0130,45.6357
10.9877,45.6322
10.9619,45.6298
10.9356,45.6283
10.9088,45.6278
10.8939,45.6280
10.8792,45.6285
10.8501,45.6304
10.8217,45.6336
10.7938,45.6381
10.7665,45.6439
10.7398,45.6510
10.7137,45.6593
10.6882,45.6690
10.6633,45.6799
10.6390,45.6921
10.6152,45.7055
10.5921,45.7203
10.5696,45.7363
10.5476,45.7536
10.5262,45.7721
10.5055,45.7920
10.4935,45.8042
10.4822,45.8167
10.4714,45.8294
10.4613,45.8423
10.4517,45.8555
10.4427,45.8688
10.4342,45.8825
10.4264,45.8963
10.4191,45.9105
10.4124,45.9248
10.4062,45.9395
10.4006,45.9544
10.3956,45.9696
10.3911,45.9851
10.3872,46.0008
10.3838,46.0169
10.3808,46.0332
10.3779,46.0504
10.3752,46.0686
10.3728,46.0877
10.3705,46.1077
10.3684,46.1287
10.3666,46.1506
10.3649,46.1734
10.3634,46.1972
10.3621,46.2220
10.3610,46.2476
10.3601,46.2742
10.3595,46.3017
10.3590,46.3302
10.3587,46.3596
10.3586,46.3746
10.3586,46.3899
10.3586,46.4052
10.3587,46.4202
10.3588,46.4351
10.3592,46.4641
10.3598,46.4921
10.3606,46.5192
10.3615,46.5453
10.3627,46.5706
10.3641,46.5948
10.3657,46.6182
10.3675,46.6406
10.3694,46.6620
10.3716,46.6825
10.3740,46.7021
10.3766,46.7207
10.3793,46.7384
10.3823,46.7552
10.3838,46.7632
10.3872,46.7789
10.3911,46.7944
10.3956,46.8097
10.4006,46.8248
10.4062,46.8396
10.4124,46.8543
10.4191,46.8687
10.4264,46.8830
10.4342,46.8969
10.4427,46.9107
10.4517,46.9242
10.4613,46.9375
10.4714,46.9505
10.4822,46.9633
10.4935,46.9759
10.5055,46.9881
10.5262,47.0080
10.5476,47.0265
10.5696,47.0438
10.5921,47.0598
10.6152,47.0745
10.6390,47.0879
10.6633,47.1001
10.6882,47.1110
10.7137,47.1206
10.7398,47.1289
10.7665,47.1359
10.7938,47.1417
10.8217,47.1462
10.8501,47.1493
10.8792,47.1513
10.8939,47.1517
10.9088,47.1519
10.9354,47.1514
10.9615,47.1499
10.9872,47.1475
11.0124,47.1441
11.0371,47.1397
11.0613,47.1344
11.0850,47.1281
11.1081,47.1209
11.1307,47.1128
11.1527,47.1037
11.1742,47.0937
11.1950,47.0827
11.2153,47.0709
11.2349,47.0581
11.2538,47.0444
11.2720,47.0299
11.2896,47.0144
11.3065,46.9980
11.3226,46.9808
11.3380,46.9627
11.3527,46.9437
11.3666,46.9239
11.3797,46.9031
11.3919,46.8816
11.4034,46.8592
11.4140,46.8359
11.4238,46.8118
11.4327,46.7869
11.4407,46.7611
11.4477,46.7345
11.4539,46.7071
Z" /> 
</g></g>
<g style="fill:#000000; fill-opacity:1.0000; 
stroke:#000000; stroke-width:0.3000; stroke-opacity:1; 
stroke-linecap:round; stroke-linejoin:round;">
</g>
<g style="fill:#000000; fill-opacity:0.0; 
stroke:#000000; stroke-width:0.3000; stroke-opacity:1; 
stroke-linecap:round; stroke-linejoin:round;">
<text x="50.5960" y="107.5440"
textLength="6.6077" font-size="2.0000" lengthAdjust="spacingAndGlyphs"
text-anchor="middle" opacity="0">SHAPE</text>
<g class="stroked-text"><desc>SHAPE</desc>
</g>
<g style="fill:#000000; fill-opacity:1.0000; 
stroke:#000000; stroke-width:0.0000; stroke-opacity:1; 
stroke-linecap:round; stroke-linejoin:round;">
<path style="fill:#000000; fill-opacity:1.0000; 
stroke:#000000; stroke-width:0.0000; stroke-opacity:1; 
stroke-linecap:round; stroke-linejoin:round;fill-rule:evenodd;"
d="M 48.4323,106.9856
48.4318,106.9610
48.4306,106.9370
48.4284,106.9135
48.4255,106.8906
48.4216,106.8684
48.4168,106.8467
48.4111,106.8257
48.4045,106.8053
48.3970,106.7856
48.3885,106.7666
48.3790,106.7483
48.3686,106.7306
48.3572,106.7138
48.3447,106.6976
48.3313,106.6822
48.3168,106.6676
48.3048,106.6568
48.2921,106.6465
48.2788,106.6366
48.2648,106.6273
48.2502,106.6184
48.2348,106.6100
48.2186,106.6020
48.2016,106.5946
48.1837,106.5876
48.1649,106.5810
48.1452,106.5750
48.1245,106.5694
48.1028,106.5642
48.0800,106.5595
48.0561,106.5553
48.0311,106.5515
47.8549,106.5262
47.8381,106.5234
47.8220,106.5200
47.8066,106.5158
47.7920,106.5111
47.7782,106.5057
47.7610,106.4978
47.7453,106.4891
47.7313,106.4797
47.7188,106.4698
47.7160,106.4672
47.7051,106.4557
47.6958,106.4434
47.6883,106.4303
47.6822,106.4167
47.6776,106.4027
47.6739,106.3849
47.6722,106.3670
47.6720,106.3599
47.6729,106.3407
47.6756,106.3220
47.6800,106.3040
47.6863,106.2866
47.6943,106.2701
47.7041,106.2544
47.7158,106.2398
47.7292,106.2262
47.7445,106.2139
47.7617,106.2029
47.7806,106.1933
47.8014,106.1852
47.8241,106.1787
47.8486,106.1740
47.8750,106.1711
47.9032,106.1701
47.9219,106.1703
47.9408,106.1708
47.9600,106.1719
47.9794,106.1735
47.9990,106.1758
48.0186,106.1789
48.0383,106.1829
48.0581,106.1878
48.0777,106.1938
48.0973,106.2009
48.1167,106.2093
48.1359,106.2191
48.1549,106.2303
48.1736,106.2430
48.1919,106.2573
48.2099,106.2734
48.3945,106.0902
48.3824,106.0788
48.3702,106.0679
48.3579,106.0573
48.3454,106.0472
48.3327,106.0375
48.3200,106.0281
48.3070,106.0192
48.2939,106.0107
48.2806,106.0026
48.2671,105.9949
48.2534,105.9876
48.2396,105.9806
48.2255,105.9741
48.2113,105.9679
48.1968,105.9620
48.1821,105.9566
48.1671,105.9515
48.1520,105.9468
48.1366,105.9424
48.1209,105.9384
48.1050,105.9347
48.0889,105.9313
48.0725,105.9283
48.0558,105.9257
48.0388,105.9233
48.0215,105.9213
48.0040,105.9196
47.9861,105.9182
47.9680,105.9172
47.9495,105.9164
47.9308,105.9160
47.9116,105.9158
47.8817,105.9164
47.8525,105.9180
47.8240,105.9207
47.7964,105.9244
47.7695,105.9291
47.7434,105.9349
47.7182,105.9416
47.6938,105.9493
47.6702,105.9579
47.6475,105.9674
47.6256,105.9779
47.6046,105.9892
47.5846,106.0014
47.5654,106.0144
47.5472,106.0282
47.5299,106.0429
47.5135,106.0583
47.4981,106.0745
47.4837,106.0914
47.4702,106.1091
47.4578,106.1275
47.4464,106.1465
47.4360,106.1663
47.4266,106.1866
47.4183,106.2076
47.4110,106.2292
47.4049,106.2514
47.3998,106.2742
47.3958,106.2975
47.3930,106.3213
47.3913,106.3457
47.3907,106.3705
47.3911,106.3938
47.3923,106.4165
47.3944,106.4385
47.3973,106.4598
47.4011,106.4804
47.4057,106.5004
47.4111,106.5197
47.4174,106.5384
47.4245,106.5565
47.4324,106.5739
47.4412,106.5907
47.4508,106.6068
47.4613,106.6224
47.4725,106.6373
47.4847,106.6517
47.4977,106.6654
47.5106,106.6774
47.5242,106.6887
47.5385,106.6995
47.5534,106.7097
47.5690,106.7194
47.5853,106.7284
47.6022,106.7370
47.6199,106.7450
47.6383,106.7524
47.6573,106.7593
47.6772,106.7657
47.6977,106.7715
47.7190,106.7768
47.7411,106.7816
47.7639,106.7859
47.7875,106.7896
47.9681,106.8149
47.9867,106.8180
48.0036,106.8214
48.0189,106.8250
48.0371,106.8304
48.0531,106.8366
48.0674,106.8435
48.0802,106.8514
48.0920,106.8603
48.1003,106.8676
48.1114,106.8794
48.1209,106.8925
48.1289,106.9069
48.1354,106.9223
48.1404,106.9389
48.1440,106.9564
48.1461,106.9748
48.1469,106.9940
48.1458,107.0159
48.1425,107.0365
48.1372,107.0558
48.1297,107.0738
48.1201,107.0904
48.1084,107.1056
48.0947,107.1195
48.0790,107.1320
48.0612,107.1431
48.0415,107.1527
48.0197,107.1609
47.9960,107.1677
47.9704,107.1729
47.9428,107.1767
47.9133,107.1790
47.8979,107.1796
47.8820,107.1798
47.8561,107.1794
47.8306,107.1782
47.8053,107.1762
47.7804,107.1733
47.7559,107.1695
47.7317,107.1647
47.7081,107.1589
47.6849,107.1520
47.6622,107.1441
47.6401,107.1349
47.6185,107.1246
47.5976,107.1130
47.5773,107.1002
47.5577,107.0860
47.5389,107.0704
47.5207,107.0534
47.3317,107.2428
47.3456,107.2565
47.3596,107.2696
47.3738,107.2821
47.3881,107.2941
47.4027,107.3055
47.4174,107.3164
47.4322,107.3267
47.4473,107.3365
47.4625,107.3458
47.4780,107.3546
47.4936,107.3629
47.5095,107.3707
47.5255,107.3780
47.5418,107.3849
47.5583,107.3913
47.5750,107.3973
47.5920,107.4028
47.6092,107.4079
47.6266,107.4126
47.6443,107.4169
47.6622,107.4207
47.6804,107.4242
47.6989,107.4273
47.7176,107.4301
47.7366,107.4325
47.7559,107.4345
47.7755,107.4362
47.7954,107.4376
47.8156,107.4386
47.8361,107.4393
47.8568,107.4398
47.8779,107.4399
47.9071,107.4394
47.9357,107.4380
47.9639,107.4356
47.9916,107.4323
48.0187,107.4281
48.0453,107.4229
48.0712,107.4168
48.0965,107.4098
48.1212,107.4019
48.1451,107.3931
48.1684,107.3834
48.1908,107.3728
48.2125,107.3613
48.2333,107.3490
48.2533,107.3358
48.2724,107.3217
48.2906,107.3068
48.3079,107.2910
48.3241,107.2745
48.3394,107.2570
48.3536,107.2388
48.3667,107.2197
48.3787,107.1998
48.3896,107.1792
48.3994,107.1577
48.4079,107.1354
48.4152,107.1124
48.4213,107.0885
48.4260,107.0640
48.4295,107.0386
48.4316,107.0125
Z" /> 
<path style="fill:#000000; fill-opacity:1.0000; 
stroke:#000000; stroke-width:0.0000; stroke-opacity:1; 
stroke-linecap:round; stroke-linejoin:round;fill-rule:evenodd;"
d="M 49.7973,107.4165
49.7973,105.9158
49.5057,105.9158
49.5057,106.5255
48.9994,106.5255
48.9994,105.9158
48.7074,105.9158
48.7074,107.4165
48.9994,107.4165
48.9994,106.7841
49.5057,106.7841
49.5057,107.4165
Z" /> 
<path style="fill:#000000; fill-opacity:1.0000; 
stroke:#000000; stroke-width:0.0000; stroke-opacity:1; 
stroke-linecap:round; stroke-linejoin:round;fill-rule:evenodd;"
d="M 51.3002,107.4165
50.9957,107.4165
50.9074,107.1465
50.3762,107.1465
50.2857,107.4165
49.9812,107.4165
50.1683,106.9006
50.4579,106.9006
50.8297,106.9006
50.6469,106.3569
50.4579,106.9006
50.1683,106.9006
50.5253,105.9158
50.7543,105.9158
Z" /> 
<path style="fill:#000000; fill-opacity:1.0000; 
stroke:#000000; stroke-width:0.0000; stroke-opacity:1; 
stroke-linecap:round; stroke-linejoin:round;fill-rule:evenodd;"
d="M 52.0926,105.9164
52.1205,105.9183
52.1476,105.9213
52.1739,105.9255
52.1995,105.9307
52.2243,105.9371
52.2483,105.9445
52.2715,105.9530
52.2939,105.9625
52.3154,105.9729
52.3361,105.9842
52.3560,105.9965
52.3750,106.0097
52.3932,106.0236
52.4104,106.0385
52.4268,106.0540
52.4422,106.0704
52.4568,106.0875
52.4704,106.1052
52.4831,106.1236
52.4948,106.1427
52.5055,106.1623
52.5153,106.1826
52.5241,106.2033
52.5320,106.2246
52.5388,106.2463
52.5446,106.2685
52.5493,106.2911
52.5531,106.3141
52.5557,106.3375
52.5573,106.3612
52.5579,106.3851
52.5573,106.4091
52.5557,106.4327
52.5531,106.4561
52.5493,106.4790
52.5446,106.5016
52.5388,106.5238
52.5320,106.5455
52.5241,106.5667
52.5153,106.5874
52.5055,106.6076
52.4948,106.6272
52.4831,106.6463
52.4704,106.6647
52.4568,106.6824
52.4422,106.6994
52.4268,106.7157
52.4104,106.7313
52.3932,106.7461
52.3750,106.7601
52.3560,106.7732
52.3361,106.7854
52.3154,106.7968
52.2939,106.8072
52.2715,106.8166
52.2483,106.8251
52.2243,106.8325
52.1995,106.8389
52.1739,106.8441
52.1476,106.8483
52.1205,106.8513
52.0926,106.8531
52.0640,106.8537
51.7764,106.8537
51.7764,107.4165
51.4844,107.4165
51.4844,106.1763
51.7764,106.1763
51.7764,106.5914
52.0494,106.5914
52.0736,106.5904
52.0966,106.5876
52.1185,106.5829
52.1390,106.5765
52.1582,106.5684
52.1760,106.5586
52.1924,106.5473
52.2072,106.5344
52.2205,106.5202
52.2323,106.5045
52.2423,106.4875
52.2507,106.4693
52.2572,106.4499
52.2620,106.4294
52.2649,106.4077
52.2659,106.3851
52.2649,106.3625
52.2620,106.3407
52.2572,106.3200
52.2507,106.3004
52.2423,106.2820
52.2323,106.2648
52.2205,106.2489
52.2072,106.2344
52.1924,106.2214
52.1760,106.2098
52.1582,106.1999
52.1390,106.1916
52.1185,106.1850
52.0966,106.1802
52.0736,106.1773
52.0494,106.1763
51.7764,106.1763
51.4844,106.1763
51.4844,105.9158
52.0640,105.9158
Z" /> 
<path style="fill:#000000; fill-opacity:1.0000; 
stroke:#000000; stroke-width:0.0000; stroke-opacity:1; 
stroke-linecap:round; stroke-linejoin:round;fill-rule:evenodd;"
d="M 53.7885,107.4165
53.7885,107.1563
53.0953,107.1563
53.0953,106.7859
53.6855,106.7859
53.6855,106.5255
53.0953,106.5255
53.0953,106.1763
53.7885,106.1763
53.7885,105.9158
52.8033,105.9158
52.8033,107.4165
Z" /> 
</g></g>
<g style="fill:#000000; fill-opacity:1.0000; 
stroke:#000000; stroke-width:0.3000; stroke-opacity:1; 
stroke-linecap:round; stroke-linejoin:round;">
</g>
<g style="fill:#000000; fill-opacity:0.0; 
stroke:#000000; stroke-width:0.3000; stroke-opacity:1; 
stroke-linecap:round; stroke-linejoin:round;">
<text x="31.3000" y="63.8440"
textLength="11.8746" font-size="2.0000" lengthAdjust="spacingAndGlyphs"
text-anchor="middle" opacity="0">FREQUENCY</text>
<g class="stroked-text"><desc>FREQUENCY</desc>
</g>
<g style="fill:#000000; fill-opacity:1.0000; 
stroke:#000000; stroke-width:0.0000; stroke-opacity:1; 
stroke-linecap:round; stroke-linejoin:round;">
<path style="fill:#000000; fill-opacity:1.0000; 
stroke:#000000; stroke-width:0.0000; stroke-opacity:1; 
stroke-linecap:round; stroke-linejoin:round;fill-rule:evenodd;"
d="M 26.5219,62.4763
26.5219,62.2158
25.5367,62.2158
25.5367,63.7165
25.8287,63.7165
25.8287,63.1068
26.4189,63.1068
26.4189,62.8467
25.8287,62.8467
25.8287,62.4763
Z" /> 
<path style="fill:#000000; fill-opacity:1.0000; 
stroke:#000000; stroke-width:0.0000; stroke-opacity:1; 
stroke-linecap:round; stroke-linejoin:round;fill-rule:evenodd;"
d="M 27.3894,62.2164
27.4168,62.2182
27.4435,62.2212
27.4695,62.2253
27.4946,62.2304
27.5190,62.2367
27.5426,62.2440
27.5654,62.2523
27.5874,62.2615
27.6086,62.2717
27.6290,62.2829
27.6485,62.2949
27.6671,62.3078
27.6849,62.3215
27.7019,62.3359
27.7179,62.3512
27.7331,62.3672
27.7473,62.3839
27.7607,62.4013
27.7731,62.4193
27.7846,62.4379
27.7951,62.4571
27.8047,62.4769
27.8133,62.4971
27.8209,62.5179
27.8276,62.5391
27.8333,62.5608
27.8379,62.5829
27.8416,62.6053
27.8442,62.6281
27.8458,62.6512
27.8463,62.6745
27.8459,62.6940
27.8448,62.7131
27.8430,62.7316
27.8405,62.7497
27.8373,62.7674
27.8335,62.7845
27.8290,62.8012
27.8240,62.8175
27.8183,62.8332
27.8121,62.8485
27.8054,62.8633
27.7981,62.8777
27.7903,62.8916
27.7820,62.9050
27.7733,62.9180
27.7641,62.9305
27.7545,62.9425
27.7445,62.9541
27.7341,62.9652
27.7233,62.9759
27.7122,62.9861
27.7008,62.9958
27.6890,63.0051
27.6770,63.0139
27.6648,63.0222
27.6523,63.0301
27.6395,63.0376
27.6266,63.0446
27.6003,63.0572
27.5733,63.0680
27.9071,63.7165
27.5689,63.7165
27.2770,63.1160
27.0670,63.1160
27.0670,63.7165
26.7750,63.7165
26.7750,62.4763
27.0670,62.4763
27.0670,62.8724
27.3422,62.8724
27.3657,62.8714
27.3881,62.8686
27.4094,62.8640
27.4294,62.8577
27.4482,62.8498
27.4656,62.8403
27.4817,62.8293
27.4963,62.8169
27.5094,62.8031
27.5210,62.7880
27.5309,62.7717
27.5392,62.7543
27.5457,62.7358
27.5504,62.7163
27.5533,62.6958
27.5543,62.6745
27.5533,62.6532
27.5504,62.6328
27.5457,62.6132
27.5392,62.5947
27.5309,62.5773
27.5210,62.5609
27.5094,62.5458
27.4963,62.5320
27.4817,62.5195
27.4656,62.5085
27.4482,62.4990
27.4294,62.4910
27.4094,62.4847
27.3881,62.4801
27.3657,62.4773
27.3422,62.4763
27.0670,62.4763
26.7750,62.4763
26.7750,62.2158
27.3612,62.2158
Z" /> 
<path style="fill:#000000; fill-opacity:1.0000; 
stroke:#000000; stroke-width:0.0000; stroke-opacity:1; 
stroke-linecap:round; stroke-linejoin:round;fill-rule:evenodd;"
d="M 29.1333,63.7165
29.1333,63.4563
28.4402,63.4563
28.4402,63.0859
29.0304,63.0859
29.0304,62.8255
28.4402,62.8255
28.4402,62.4763
29.1333,62.4763
29.1333,62.2158
28.1482,62.2158
28.1482,63.7165
Z" /> 
<path style="fill:#000000; fill-opacity:1.0000; 
stroke:#000000; stroke-width:0.0000; stroke-opacity:1; 
stroke-linecap:round; stroke-linejoin:round;fill-rule:evenodd;"
d="M 29.9365,62.2160
29.9521,62.2165
29.9674,62.2174
29.9826,62.2186
29.9975,62.2201
30.0121,62.2220
30.0407,62.2267
30.0685,62.2327
30.0954,62.2400
30.1215,62.2486
30.1468,62.2585
30.1713,62.2695
30.1951,62.2818
30.2182,62.2953
30.2406,62.3100
30.2623,62.3258
30.2835,62.3427
30.3040,62.3608
30.3240,62.3800
30.3377,62.3943
30.3506,62.4088
30.3626,62.4235
30.3739,62.4385
30.3843,62.4537
30.3940,62.4691
30.4029,62.4848
30.4111,62.5008
30.4187,62.5170
30.4256,62.5335
30.4319,62.5503
30.4377,62.5673
30.4428,62.5847
30.4475,62.6023
30.4516,62.6203
30.4553,62.6385
30.4585,62.6571
30.4613,62.6760
30.4638,62.6952
30.4658,62.7148
30.4676,62.7347
30.4690,62.7549
30.4702,62.7755
30.4711,62.7965
30.4718,62.8178
30.4723,62.8395
30.4727,62.8616
30.4729,62.8840
30.4730,62.9069
30.4731,62.9301
30.4731,62.9538
30.4731,62.9779
30.4731,62.9989
30.4731,63.0195
30.4731,63.0398
30.4730,63.0598
30.4729,63.0795
30.4727,63.0988
30.4724,63.1178
30.4720,63.1366
30.4714,63.1550
30.4707,63.1731
30.4699,63.1910
30.4688,63.2085
30.4676,63.2258
30.4661,63.2428
30.4644,63.2596
30.4624,63.2760
30.4601,63.2923
30.4576,63.3083
30.4547,63.3240
30.4515,63.3395
30.4480,63.3548
30.4441,63.3698
30.4398,63.3846
30.4351,63.3993
30.4300,63.4137
30.4244,63.4279
30.4184,63.4419
30.4119,63.4557
30.4049,63.4693
30.3974,63.4827
30.3894,63.4960
30.3808,63.5091
30.5087,63.6373
30.3555,63.7905
30.2233,63.6582
30.2073,63.6681
30.1910,63.6774
30.1743,63.6860
30.1571,63.6940
30.1396,63.7013
30.1216,63.7080
30.1033,63.7141
30.0846,63.7195
30.0655,63.7243
30.0459,63.7285
30.0260,63.7320
30.0057,63.7348
29.9850,63.7370
29.9640,63.7386
29.9425,63.7396
29.9206,63.7399
29.9048,63.7397
29.8892,63.7392
29.8739,63.7384
29.8587,63.7372
29.8438,63.7357
29.8291,63.7338
29.8004,63.7291
29.7725,63.7231
29.7455,63.7158
29.7192,63.7073
29.6937,63.6975
29.6690,63.6864
29.6450,63.6742
29.6218,63.6607
29.5992,63.6461
29.5773,63.6303
29.5561,63.6134
29.5354,63.5953
29.5154,63.5761
29.5017,63.5619
29.4889,63.5473
29.4769,63.5326
29.4657,63.5176
29.4553,63.5024
29.4457,63.4870
29.4368,63.4713
29.4287,63.4553
29.4212,63.4391
29.4143,63.4226
29.4081,63.4058
29.4025,63.3887
29.3974,63.3714
29.3928,63.3537
29.3888,63.3358
29.3852,63.3175
29.3821,63.2990
29.3794,63.2801
29.3771,63.2608
29.3751,63.2413
29.3735,63.2214
29.3721,63.2011
29.3710,63.1805
29.3702,63.1595
29.3696,63.1382
29.3691,63.1164
29.3688,63.0943
29.3686,63.0718
29.3685,63.0490
29.3685,63.0257
29.3685,63.0020
29.3685,62.9779
29.6605,62.9779
29.6606,63.0043
29.6607,63.0295
29.6609,63.0535
29.6613,63.0764
29.6617,63.0981
29.6622,63.1187
29.6629,63.1383
29.6637,63.1568
29.6646,63.1744
29.6656,63.1910
29.6668,63.2067
29.6681,63.2216
29.6712,63.2490
29.6749,63.2733
29.6793,63.2951
29.6843,63.3145
29.6901,63.3319
29.6967,63.3476
29.7041,63.3619
29.7123,63.3751
29.7215,63.3876
29.7316,63.3996
29.7441,63.4127
29.7579,63.4249
29.7728,63.4361
29.7890,63.4462
29.8061,63.4551
29.8243,63.4628
29.8435,63.4691
29.8635,63.4741
29.8843,63.4775
29.9059,63.4794
29.9206,63.4798
29.9273,63.4797
29.9438,63.4786
29.9599,63.4761
29.9753,63.4723
29.9901,63.4671
30.0042,63.4605
30.0174,63.4523
29.8873,63.3237
30.0426,63.1698
30.1540,63.2816
30.1600,63.2626
30.1651,63.2424
30.1680,63.2280
30.1705,63.2129
30.1727,63.1969
30.1746,63.1801
30.1762,63.1623
30.1776,63.1435
30.1786,63.1236
30.1795,63.1025
30.1801,63.0803
30.1806,63.0568
30.1809,63.0319
30.1811,63.0056
30.1811,62.9779
30.1811,62.9514
30.1809,62.9263
30.1807,62.9023
30.1803,62.8795
30.1798,62.8578
30.1792,62.8372
30.1785,62.8176
30.1776,62.7991
30.1766,62.7815
30.1755,62.7649
30.1742,62.7492
30.1728,62.7343
30.1695,62.7070
30.1656,62.6826
30.1611,62.6608
30.1558,62.6414
30.1498,62.6240
30.1431,62.6084
30.1356,62.5941
30.1272,62.5809
30.1180,62.5685
30.1079,62.5566
30.0954,62.5434
30.0818,62.5312
30.0670,62.5200
30.0512,62.5099
30.0343,62.5010
30.0163,62.4933
29.9975,62.4870
29.9777,62.4821
29.9570,62.4786
29.9354,62.4767
29.9206,62.4763
29.9059,62.4767
29.8843,62.4786
29.8635,62.4821
29.8435,62.4870
29.8243,62.4933
29.8061,62.5010
29.7890,62.5099
29.7728,62.5200
29.7579,62.5312
29.7441,62.5434
29.7316,62.5566
29.7215,62.5685
29.7123,62.5809
29.7041,62.5941
29.6967,62.6084
29.6901,62.6240
29.6843,62.6414
29.6793,62.6608
29.6749,62.6826
29.6712,62.7070
29.6681,62.7343
29.6668,62.7492
29.6656,62.7649
29.6646,62.7815
29.6637,62.7991
29.6629,62.8176
29.6622,62.8372
29.6617,62.8578
29.6613,62.8795
29.6609,62.9023
29.6607,62.9263
29.6606,62.9514
29.6605,62.9779
29.3685,62.9779
29.3685,62.9538
29.3685,62.9301
29.3685,62.9069
29.3686,62.8840
29.3688,62.8616
29.3691,62.8395
29.3696,62.8178
29.3702,62.7965
29.3710,62.7755
29.3721,62.7549
29.3735,62.7347
29.3751,62.7148
29.3771,62.6952
29.3794,62.6760
29.3821,62.6571
29.3852,62.6385
29.3888,62.6203
29.3928,62.6023
29.3974,62.5847
29.4025,62.5673
29.4081,62.5503
29.4143,62.5335
29.4212,62.5170
29.4287,62.5008
29.4368,62.4848
29.4457,62.4691
29.4553,62.4537
29.4657,62.4385
29.4769,62.4235
29.4889,62.4088
29.5017,62.3943
29.5154,62.3800
29.5354,62.3608
29.5561,62.3427
29.5773,62.3258
29.5992,62.3100
29.6218,62.2953
29.6450,62.2818
29.6690,62.2695
29.6937,62.2585
29.7192,62.2486
29.7455,62.2400
29.7725,62.2327
29.8004,62.2267
29.8291,62.2220
29.8438,62.2201
29.8587,62.2186
29.8739,62.2174
29.8892,62.2165
29.9048,62.2160
29.9206,62.2158
Z" /> 
<path style="fill:#000000; fill-opacity:1.0000; 
stroke:#000000; stroke-width:0.0000; stroke-opacity:1; 
stroke-linecap:round; stroke-linejoin:round;fill-rule:evenodd;"
d="M 31.8459,63.2116
31.8459,62.2158
31.5561,62.2158
31.5561,63.2010
31.5558,63.2171
31.5549,63.2329
31.5534,63.2482
31.5514,63.2630
31.5487,63.2775
31.5418,63.3050
31.5327,63.3308
31.5216,63.3546
31.5084,63.3766
31.4932,63.3965
31.4762,63.4145
31.4573,63.4304
31.4367,63.4442
31.4145,63.4558
31.3906,63.4652
31.3653,63.4723
31.3384,63.4771
31.3102,63.4795
31.2956,63.4798
31.2667,63.4786
31.2393,63.4750
31.2133,63.4690
31.1888,63.4608
31.1659,63.4503
31.1446,63.4376
31.1251,63.4227
31.1074,63.4058
31.0915,63.3868
31.0775,63.3658
31.0655,63.3429
31.0555,63.3181
31.0477,63.2915
31.0420,63.2630
31.0399,63.2482
31.0385,63.2329
31.0376,63.2171
31.0373,63.2010
31.0373,62.2158
30.7453,62.2158
30.7453,63.2116
30.7460,63.2413
30.7481,63.2704
30.7516,63.2987
30.7564,63.3263
30.7625,63.3533
30.7698,63.3794
30.7784,63.4048
30.7882,63.4294
30.7991,63.4532
30.8112,63.4762
30.8244,63.4983
30.8386,63.5196
30.8538,63.5401
30.8701,63.5596
30.8873,63.5783
30.9055,63.5960
30.9245,63.6128
30.9444,63.6286
30.9652,63.6434
30.9867,63.6573
31.0090,63.6701
31.0321,63.6819
31.0558,63.6927
31.0803,63.7024
31.1053,63.7111
31.1310,63.7186
31.1572,63.7251
31.1839,63.7304
31.2112,63.7345
31.2389,63.7375
31.2670,63.7393
31.2956,63.7399
31.3242,63.7393
31.3523,63.7375
31.3800,63.7345
31.4073,63.7304
31.4340,63.7251
31.4603,63.7186
31.4859,63.7111
31.5110,63.7024
31.5354,63.6927
31.5591,63.6819
31.5822,63.6701
31.6045,63.6573
31.6260,63.6434
31.6468,63.6286
31.6667,63.6128
31.6857,63.5960
31.7039,63.5783
31.7211,63.5596
31.7374,63.5401
31.7526,63.5196
31.7669,63.4983
31.7800,63.4762
31.7921,63.4532
31.8030,63.4294
31.8128,63.4048
31.8214,63.3794
31.8287,63.3533
31.8348,63.3263
31.8396,63.2987
31.8431,63.2704
31.8452,63.2413
Z" /> 
<path style="fill:#000000; fill-opacity:1.0000; 
stroke:#000000; stroke-width:0.0000; stroke-opacity:1; 
stroke-linecap:round; stroke-linejoin:round;fill-rule:evenodd;"
d="M 33.1560,63.7165
33.1560,63.4563
32.4628,63.4563
32.4628,63.0859
33.0531,63.0859
33.0531,62.8255
32.4628,62.8255
32.4628,62.4763
33.1560,62.4763
33.1560,62.2158
32.1708,62.2158
32.1708,63.7165
Z" /> 
<path style="fill:#000000; fill-opacity:1.0000; 
stroke:#000000; stroke-width:0.0000; stroke-opacity:1; 
stroke-linecap:round; stroke-linejoin:round;fill-rule:evenodd;"
d="M 34.5859,63.7165
34.5859,62.2158
34.2943,62.2158
34.2943,63.1350
33.7019,62.2158
33.4414,62.2158
33.4414,63.7165
33.7334,63.7165
33.7334,62.7954
34.3258,63.7165
Z" /> 
<path style="fill:#000000; fill-opacity:1.0000; 
stroke:#000000; stroke-width:0.0000; stroke-opacity:1; 
stroke-linecap:round; stroke-linejoin:round;fill-rule:evenodd;"
d="M 35.9836,63.2669
35.6872,63.2669
35.6807,63.2905
35.6731,63.3130
35.6643,63.3343
35.6543,63.3544
35.6431,63.3733
35.6307,63.3908
35.6170,63.4069
35.6021,63.4216
35.5859,63.4347
35.5684,63.4463
35.5496,63.4563
35.5295,63.4646
35.5080,63.4712
35.4851,63.4759
35.4608,63.4788
35.4352,63.4798
35.4204,63.4795
35.3991,63.4779
35.3787,63.4750
35.3591,63.4707
35.3405,63.4651
35.3227,63.4581
35.3059,63.4496
35.2901,63.4398
35.2752,63.4285
35.2613,63.4159
35.2483,63.4018
35.2375,63.3894
35.2277,63.3766
35.2190,63.3632
35.2112,63.3488
35.2044,63.3330
35.1984,63.3155
35.1932,63.2961
35.1889,63.2743
35.1852,63.2499
35.1822,63.2225
35.1809,63.2076
35.1798,63.1919
35.1788,63.1752
35.1779,63.1576
35.1772,63.1390
35.1766,63.1194
35.1761,63.0987
35.1757,63.0769
35.1754,63.0540
35.1752,63.0298
35.1751,63.0045
35.1750,62.9779
35.1751,62.9513
35.1752,62.9260
35.1754,62.9019
35.1757,62.8789
35.1761,62.8572
35.1766,62.8365
35.1772,62.8169
35.1779,62.7983
35.1788,62.7807
35.1798,62.7640
35.1809,62.7483
35.1822,62.7334
35.1852,62.7060
35.1889,62.6816
35.1932,62.6599
35.1984,62.6404
35.2044,62.6230
35.2112,62.6072
35.2190,62.5928
35.2277,62.5794
35.2375,62.5667
35.2483,62.5544
35.2613,62.5402
35.2752,62.5276
35.2901,62.5163
35.3059,62.5065
35.3227,62.4981
35.3405,62.4910
35.3591,62.4854
35.3787,62.4811
35.3991,62.4782
35.4204,62.4766
35.4352,62.4763
35.4608,62.4773
35.4851,62.4802
35.5080,62.4849
35.5295,62.4915
35.5496,62.4998
35.5684,62.5098
35.5859,62.5214
35.6021,62.5345
35.6170,62.5492
35.6307,62.5653
35.6431,62.5828
35.6543,62.6017
35.6643,62.6218
35.6731,62.6431
35.6807,62.6656
35.6872,62.6892
35.9836,62.6892
35.9784,62.6610
35.9722,62.6336
35.9652,62.6070
35.9572,62.5812
35.9484,62.5563
35.9387,62.5322
35.9281,62.5089
35.9167,62.4865
35.9045,62.4649
35.8915,62.4442
35.8777,62.4243
35.8631,62.4053
35.8478,62.3872
35.8317,62.3699
35.8149,62.3535
35.7974,62.3381
35.7791,62.3235
35.7602,62.3098
35.7407,62.2970
35.7205,62.2851
35.6997,62.2742
35.6782,62.2641
35.6562,62.2550
35.6335,62.2469
35.6103,62.2396
35.5866,62.2334
35.5623,62.2280
35.5375,62.2237
35.5121,62.2202
35.4863,62.2178
35.4601,62.2163
35.4333,62.2158
35.4184,62.2160
35.4037,62.2165
35.3746,62.2184
35.3461,62.2216
35.3183,62.2261
35.2910,62.2319
35.2643,62.2390
35.2382,62.2473
35.2127,62.2570
35.1878,62.2679
35.1634,62.2801
35.1397,62.2935
35.1166,62.3083
35.0940,62.3243
35.0721,62.3416
35.0507,62.3601
35.0300,62.3800
35.0180,62.3922
35.0067,62.4047
34.9959,62.4174
34.9858,62.4303
34.9762,62.4435
34.9672,62.4568
34.9587,62.4705
34.9509,62.4843
34.9436,62.4985
34.9369,62.5128
34.9307,62.5275
34.9251,62.5424
34.9201,62.5576
34.9156,62.5731
34.9117,62.5888
34.9083,62.6049
34.9053,62.6212
34.9024,62.6384
34.8997,62.6566
34.8973,62.6757
34.8950,62.6957
34.8929,62.7167
34.8910,62.7386
34.8894,62.7614
34.8879,62.7852
34.8866,62.8100
34.8855,62.8356
34.8846,62.8622
34.8839,62.8897
34.8834,62.9182
34.8831,62.9476
34.8831,62.9626
34.8830,62.9779
34.8831,62.9932
34.8831,63.0082
34.8833,63.0231
34.8837,63.0521
34.8843,63.0801
34.8850,63.1072
34.8860,63.1333
34.8872,63.1586
34.8886,63.1828
34.8902,63.2062
34.8920,63.2286
34.8939,63.2500
34.8961,63.2705
34.8985,63.2901
34.9010,63.3087
34.9038,63.3264
34.9068,63.3432
34.9083,63.3512
34.9117,63.3669
34.9156,63.3824
34.9201,63.3977
34.9251,63.4128
34.9307,63.4276
34.9369,63.4423
34.9436,63.4567
34.9509,63.4710
34.9587,63.4849
34.9672,63.4987
34.9762,63.5122
34.9858,63.5255
34.9959,63.5385
35.0067,63.5513
35.0180,63.5639
35.0300,63.5761
35.0507,63.5960
35.0721,63.6145
35.0940,63.6318
35.1166,63.6478
35.1397,63.6625
35.1634,63.6759
35.1878,63.6881
35.2127,63.6990
35.2382,63.7086
35.2643,63.7169
35.2910,63.7239
35.3183,63.7297
35.3461,63.7342
35.3746,63.7373
35.4037,63.7393
35.4184,63.7397
35.4333,63.7399
35.4599,63.7394
35.4860,63.7379
35.5116,63.7355
35.5368,63.7321
35.5615,63.7277
35.5858,63.7224
35.6094,63.7161
35.6326,63.7089
35.6552,63.7008
35.6772,63.6917
35.6987,63.6817
35.7195,63.6707
35.7397,63.6589
35.7593,63.6461
35.7783,63.6324
35.7965,63.6179
35.8141,63.6024
35.8310,63.5860
35.8471,63.5688
35.8625,63.5507
35.8772,63.5317
35.8911,63.5119
35.9041,63.4911
35.9164,63.4696
35.9279,63.4472
35.9385,63.4239
35.9483,63.3998
35.9571,63.3749
35.9651,63.3491
35.9722,63.3225
35.9784,63.2951
Z" /> 
<path style="fill:#000000; fill-opacity:1.0000; 
stroke:#000000; stroke-width:0.0000; stroke-opacity:1; 
stroke-linecap:round; stroke-linejoin:round;fill-rule:evenodd;"
d="M 37.2318,62.2158
36.9149,62.2158
36.6398,62.8211
36.3602,62.2158
36.0433,62.2158
36.4925,63.1013
36.4925,63.7165
36.7826,63.7165
36.7826,63.1013
Z" /> 
</g></g>
<g style="fill:#000000; fill-opacity:1.0000; 
stroke:#000000; stroke-width:0.3000; stroke-opacity:1; 
stroke-linecap:round; stroke-linejoin:round;">
</g>
<g style="fill:#000000; fill-opacity:0.0; 
stroke:#000000; stroke-width:0.3000; stroke-opacity:1; 
stroke-linecap:round; stroke-linejoin:round;">
<text x="37.1340" y="107.9620"
textLength="3.7354" font-size="2.0000" lengthAdjust="spacingAndGlyphs"
text-anchor="middle" opacity="0">EXT</text>
<g class="stroked-text"><desc>EXT</desc>
</g>
<g style="fill:#000000; fill-opacity:1.0000; 
stroke:#000000; stroke-width:0.0000; stroke-opacity:1; 
stroke-linecap:round; stroke-linejoin:round;">
<path style="fill:#000000; fill-opacity:1.0000; 
stroke:#000000; stroke-width:0.0000; stroke-opacity:1; 
stroke-linecap:round; stroke-linejoin:round;fill-rule:evenodd;"
d="M 36.4255,107.8345
36.4255,107.5743
35.7323,107.5743
35.7323,107.2039
36.3225,107.2039
36.3225,106.9435
35.7323,106.9435
35.7323,106.5943
36.4255,106.5943
36.4255,106.3338
35.4403,106.3338
35.4403,107.8345
Z" /> 
<path style="fill:#000000; fill-opacity:1.0000; 
stroke:#000000; stroke-width:0.0000; stroke-opacity:1; 
stroke-linecap:round; stroke-linejoin:round;fill-rule:evenodd;"
d="M 37.7924,107.8345
37.3263,107.0655
37.7612,106.3338
37.4315,106.3338
37.1688,106.8189
36.9083,106.3338
36.5764,106.3338
37.0113,107.0655
36.5471,107.8345
36.8812,107.8345
37.1688,107.3120
37.4586,107.8345
Z" /> 
<path style="fill:#000000; fill-opacity:1.0000; 
stroke:#000000; stroke-width:0.0000; stroke-opacity:1; 
stroke-linecap:round; stroke-linejoin:round;fill-rule:evenodd;"
d="M 38.9391,106.5943
38.9391,106.3338
37.8656,106.3338
37.8656,106.5943
38.2565,106.5943
38.2565,107.8345
38.5485,107.8345
38.5485,106.5943
Z" /> 
</g></g>
<g style="fill:#000000; fill-opacity:1.0000; 
stroke:#000000; stroke-width:0.1500; stroke-opacity:1; 
stroke-linecap:round; stroke-linejoin:round;">
</g>
<g style="fill:#000000; fill-opacity:0.0; 
stroke:#000000; stroke-width:0.1500; stroke-opacity:1; 
stroke-linecap:round; stroke-linejoin:round;">
<text x="51.8625" y="41.4440"
textLength="1.6988" font-size="1.3333" lengthAdjust="spacingAndGlyphs"
text-anchor="middle" opacity="0">HI</text>
<g class="stroked-text"><desc>HI</desc>
<path d="M51.3387 41.2263
L51.3387 40.2263
" />
<path d="M51.3387 40.7025
L51.9101 40.7025
" />
<path d="M51.9101 41.2263
L51.9101 40.2263
" />
<path d="M52.3863 41.2263
L52.3863 40.2263
" />
</g></g>
<g style="fill:#000000; fill-opacity:0.0; 
stroke:#000000; stroke-width:0.3000; stroke-opacity:1; 
stroke-linecap:round; stroke-linejoin:round;">
<text x="6.1460" y="65.2900"
textLength="5.8736" font-size="2.0000" lengthAdjust="spacingAndGlyphs"
text-anchor="start" opacity="0">V/OCT</text>
<g class="stroked-text"><desc>V/OCT</desc>
</g>
<g style="fill:#000000; fill-opacity:1.0000; 
stroke:#000000; stroke-width:0.0000; stroke-opacity:1; 
stroke-linecap:round; stroke-linejoin:round;">
<path style="fill:#000000; fill-opacity:1.0000; 
stroke:#000000; stroke-width:0.0000; stroke-opacity:1; 
stroke-linecap:round; stroke-linejoin:round;fill-rule:evenodd;"
d="M 7.3598,63.6618
7.0553,63.6618
6.7549,64.6400
6.4545,63.6618
6.1522,63.6618
6.6457,65.1625
6.8641,65.1625
Z" /> 
<path style="fill:#000000; fill-opacity:1.0000; 
stroke:#000000; stroke-width:0.0000; stroke-opacity:1; 
stroke-linecap:round; stroke-linejoin:round;fill-rule:evenodd;"
d="M 8.2200,63.5211
7.9635,63.5211
7.3653,65.3266
7.6213,65.3266
Z" /> 
<path style="fill:#000000; fill-opacity:1.0000; 
stroke:#000000; stroke-width:0.0000; stroke-opacity:1; 
stroke-linecap:round; stroke-linejoin:round;fill-rule:evenodd;"
d="M 8.9026,63.6620
8.9182,63.6625
8.9336,63.6634
8.9487,63.6646
8.9636,63.6661
8.9782,63.6680
9.0069,63.6727
9.0346,63.6787
9.0615,63.6860
9.0876,63.6946
9.1129,63.7045
9.1374,63.7155
9.1612,63.7278
9.1843,63.7413
9.2067,63.7560
9.2285,63.7718
9.2496,63.7887
9.2702,63.8068
9.2901,63.8260
9.3039,63.8403
9.3167,63.8548
9.3288,63.8695
9.3400,63.8845
9.3504,63.8997
9.3601,63.9151
9.3690,63.9308
9.3773,63.9468
9.3848,63.9630
9.3918,63.9795
9.3981,63.9963
9.4038,64.0133
9.4090,64.0307
9.4136,64.0483
9.4178,64.0663
9.4214,64.0845
9.4247,64.1031
9.4275,64.1220
9.4299,64.1412
9.4320,64.1608
9.4337,64.1807
9.4351,64.2009
9.4363,64.2215
9.4372,64.2425
9.4379,64.2638
9.4385,64.2855
9.4388,64.3076
9.4390,64.3300
9.4392,64.3529
9.4392,64.3761
9.4392,64.3998
9.4392,64.4239
9.4392,64.4480
9.4392,64.4717
9.4392,64.4950
9.4390,64.5178
9.4388,64.5403
9.4385,64.5624
9.4379,64.5842
9.4372,64.6055
9.4363,64.6265
9.4351,64.6471
9.4337,64.6674
9.4320,64.6873
9.4299,64.7068
9.4275,64.7261
9.4247,64.7450
9.4214,64.7635
9.4178,64.7818
9.4136,64.7997
9.4090,64.8174
9.4038,64.8347
9.3981,64.8518
9.3918,64.8686
9.3848,64.8851
9.3773,64.9013
9.3690,64.9173
9.3601,64.9330
9.3504,64.9484
9.3400,64.9636
9.3288,64.9786
9.3167,64.9933
9.3039,65.0079
9.2901,65.0221
9.2702,65.0413
9.2496,65.0594
9.2285,65.0763
9.2067,65.0921
9.1843,65.1067
9.1612,65.1202
9.1374,65.1324
9.1129,65.1435
9.0876,65.1533
9.0615,65.1618
9.0346,65.1691
9.0069,65.1751
8.9782,65.1798
8.9636,65.1817
8.9487,65.1832
8.9336,65.1844
8.9182,65.1852
8.9026,65.1857
8.8868,65.1859
8.8709,65.1857
8.8554,65.1852
8.8400,65.1844
8.8249,65.1832
8.8100,65.1817
8.7953,65.1798
8.7665,65.1751
8.7386,65.1691
8.7116,65.1618
8.6853,65.1533
8.6599,65.1435
8.6351,65.1324
8.6112,65.1202
8.5879,65.1067
8.5653,65.0921
8.5434,65.0763
8.5222,65.0594
8.5016,65.0413
8.4816,65.0221
8.4678,65.0079
8.4550,64.9933
8.4430,64.9786
8.4318,64.9636
8.4214,64.9484
8.4118,64.9330
8.4030,64.9173
8.3948,64.9013
8.3873,64.8851
8.3805,64.8686
8.3742,64.8518
8.3686,64.8347
8.3635,64.8174
8.3590,64.7997
8.3549,64.7818
8.3514,64.7635
8.3483,64.7450
8.3455,64.7261
8.3432,64.7068
8.3412,64.6873
8.3396,64.6674
8.3383,64.6471
8.3372,64.6265
8.3363,64.6055
8.3357,64.5842
8.3353,64.5624
8.3349,64.5403
8.3348,64.5178
8.3347,64.4950
8.3346,64.4717
8.3347,64.4480
8.3347,64.4239
8.6267,64.4239
8.6267,64.4503
8.6268,64.4755
8.6271,64.4995
8.6274,64.5224
8.6278,64.5441
8.6284,64.5647
8.6290,64.5843
8.6298,64.6028
8.6307,64.6204
8.6318,64.6370
8.6329,64.6527
8.6343,64.6676
8.6373,64.6950
8.6410,64.7193
8.6454,64.7411
8.6504,64.7605
8.6562,64.7779
8.6628,64.7936
8.6702,64.8079
8.6785,64.8211
8.6876,64.8336
8.6977,64.8456
8.7102,64.8587
8.7240,64.8709
8.7390,64.8821
8.7551,64.8922
8.7723,64.9011
8.7905,64.9088
8.8096,64.9151
8.8296,64.9201
8.8504,64.9235
8.8720,64.9254
8.8868,64.9258
8.9016,64.9254
8.9231,64.9235
8.9438,64.9201
8.9636,64.9151
8.9825,64.9088
9.0004,64.9011
9.0173,64.8922
9.0331,64.8821
9.0479,64.8709
9.0615,64.8587
9.0740,64.8456
9.0841,64.8336
9.0933,64.8211
9.1017,64.8079
9.1092,64.7936
9.1160,64.7779
9.1220,64.7605
9.1272,64.7411
9.1318,64.7193
9.1357,64.6950
9.1389,64.6676
9.1404,64.6527
9.1416,64.6370
9.1428,64.6204
9.1437,64.6028
9.1446,64.5843
9.1453,64.5647
9.1459,64.5441
9.1464,64.5224
9.1468,64.4995
9.1471,64.4755
9.1472,64.4503
9.1473,64.4239
9.1472,64.3974
9.1471,64.3723
9.1468,64.3483
9.1464,64.3255
9.1459,64.3038
9.1453,64.2832
9.1446,64.2636
9.1437,64.2451
9.1428,64.2275
9.1416,64.2109
9.1404,64.1952
9.1389,64.1803
9.1357,64.1530
9.1318,64.1286
9.1272,64.1068
9.1220,64.0874
9.1160,64.0700
9.1092,64.0544
9.1017,64.0401
9.0933,64.0269
9.0841,64.0145
9.0740,64.0026
9.0615,63.9894
9.0479,63.9772
9.0331,63.9660
9.0173,63.9559
9.0004,63.9470
8.9825,63.9393
8.9636,63.9330
8.9438,63.9281
8.9231,63.9246
8.9016,63.9227
8.8868,63.9223
8.8720,63.9227
8.8504,63.9246
8.8296,63.9281
8.8096,63.9330
8.7905,63.9393
8.7723,63.9470
8.7551,63.9559
8.7390,63.9660
8.7240,63.9772
8.7102,63.9894
8.6977,64.0026
8.6876,64.0145
8.6785,64.0269
8.6702,64.0401
8.6628,64.0544
8.6562,64.0700
8.6504,64.0874
8.6454,64.1068
8.6410,64.1286
8.6373,64.1530
8.6343,64.1803
8.6329,64.1952
8.6318,64.2109
8.6307,64.2275
8.6298,64.2451
8.6290,64.2636
8.6284,64.2832
8.6278,64.3038
8.6274,64.3255
8.6271,64.3483
8.6268,64.3723
8.6267,64.3974
8.6267,64.4239
8.3347,64.4239
8.3347,64.3998
8.3346,64.3761
8.3347,64.3529
8.3348,64.3300
8.3349,64.3076
8.3353,64.2855
8.3357,64.2638
8.3363,64.2425
8.3372,64.2215
8.3383,64.2009
8.3396,64.1807
8.3412,64.1608
8.3432,64.1412
8.3455,64.1220
8.3483,64.1031
8.3514,64.0845
8.3549,64.0663
8.3590,64.0483
8.3635,64.0307
8.3686,64.0133
8.3742,63.9963
8.3805,63.9795
8.3873,63.9630
8.3948,63.9468
8.4030,63.9308
8.4118,63.9151
8.4214,63.8997
8.4318,63.8845
8.4430,63.8695
8.4550,63.8548
8.4678,63.8403
8.4816,63.8260
8.5016,63.8068
8.5222,63.7887
8.5434,63.7718
8.5653,63.7560
8.5879,63.7413
8.6112,63.7278
8.6351,63.7155
8.6599,63.7045
8.6853,63.6946
8.7116,63.6860
8.7386,63.6787
8.7665,63.6727
8.7953,63.6680
8.8100,63.6661
8.8249,63.6646
8.8400,63.6634
8.8554,63.6625
8.8709,63.6620
8.8868,63.6618
Z" /> 
<path style="fill:#000000; fill-opacity:1.0000; 
stroke:#000000; stroke-width:0.0000; stroke-opacity:1; 
stroke-linecap:round; stroke-linejoin:round;fill-rule:evenodd;"
d="M 10.7864,64.7129
10.4900,64.7129
10.4835,64.7365
10.4759,64.7590
10.4671,64.7803
10.4571,64.8004
10.4459,64.8193
10.4335,64.8368
10.4198,64.8529
10.4049,64.8676
10.3887,64.8807
10.3712,64.8923
10.3524,64.9023
10.3322,64.9106
10.3107,64.9172
10.2879,64.9219
10.2636,64.9248
10.2379,64.9258
10.2232,64.9255
10.2019,64.9239
10.1814,64.9210
10.1619,64.9167
10.1432,64.9111
10.1255,64.9041
10.1087,64.8956
10.0929,64.8858
10.0780,64.8745
10.0640,64.8619
10.0511,64.8478
10.0402,64.8354
10.0305,64.8226
10.0217,64.8092
10.0140,64.7948
10.0071,64.7790
10.0012,64.7615
9.9960,64.7421
9.9916,64.7203
9.9880,64.6959
9.9850,64.6685
9.9837,64.6536
9.9825,64.6379
9.9816,64.6212
9.9807,64.6036
9.9800,64.5850
9.9794,64.5654
9.9789,64.5447
9.9785,64.5229
9.9782,64.5000
9.9780,64.4758
9.9778,64.4505
9.9778,64.4239
9.9778,64.3973
9.9780,64.3720
9.9782,64.3479
9.9785,64.3249
9.9789,64.3032
9.9794,64.2825
9.9800,64.2629
9.9807,64.2443
9.9816,64.2267
9.9825,64.2100
9.9837,64.1943
9.9850,64.1794
9.9880,64.1520
9.9916,64.1276
9.9960,64.1059
10.0012,64.0864
10.0071,64.0690
10.0140,64.0532
10.0217,64.0388
10.0305,64.0254
10.0402,64.0127
10.0511,64.0004
10.0640,63.9862
10.0780,63.9736
10.0929,63.9623
10.1087,63.9525
10.1255,63.9441
10.1432,63.9370
10.1619,63.9314
10.1814,63.9271
10.2019,63.9242
10.2232,63.9226
10.2379,63.9223
10.2636,63.9233
10.2879,63.9262
10.3107,63.9309
10.3322,63.9375
10.3524,63.9458
10.3712,63.9558
10.3887,63.9674
10.4049,63.9805
10.4198,63.9952
10.4335,64.0113
10.4459,64.0288
10.4571,64.0477
10.4671,64.0678
10.4759,64.0891
10.4835,64.1116
10.4900,64.1352
10.7864,64.1352
10.7812,64.1070
10.7750,64.0796
10.7680,64.0530
10.7600,64.0272
10.7512,64.0023
10.7415,63.9782
10.7309,63.9549
10.7195,63.9325
10.7073,63.9109
10.6943,63.8902
10.6805,63.8703
10.6659,63.8513
10.6505,63.8332
10.6344,63.8159
10.6176,63.7995
10.6001,63.7841
10.5819,63.7695
10.5630,63.7558
10.5435,63.7430
10.5233,63.7311
10.5024,63.7202
10.4810,63.7101
10.4589,63.7010
10.4363,63.6929
10.4131,63.6856
10.3893,63.6794
10.3650,63.6740
10.3402,63.6697
10.3149,63.6662
10.2891,63.6638
10.2628,63.6623
10.2361,63.6618
10.2212,63.6620
10.2064,63.6625
10.1774,63.6644
10.1489,63.6676
10.1210,63.6721
10.0937,63.6779
10.0671,63.6850
10.0410,63.6933
10.0154,63.7030
9.9905,63.7139
9.9662,63.7261
9.9425,63.7395
9.9193,63.7543
9.8968,63.7703
9.8748,63.7876
9.8535,63.8061
9.8327,63.8260
9.8208,63.8382
9.8095,63.8507
9.7987,63.8634
9.7885,63.8763
9.7789,63.8895
9.7699,63.9028
9.7615,63.9165
9.7536,63.9303
9.7463,63.9445
9.7396,63.9588
9.7335,63.9735
9.7279,63.9884
9.7228,64.0036
9.7184,64.0191
9.7145,64.0348
9.7111,64.0509
9.7080,64.0672
9.7052,64.0844
9.7025,64.1026
9.7000,64.1217
9.6978,64.1417
9.6957,64.1627
9.6938,64.1846
9.6921,64.2074
9.6906,64.2312
9.6894,64.2560
9.6883,64.2816
9.6874,64.3082
9.6867,64.3357
9.6862,64.3642
9.6859,64.3936
9.6858,64.4086
9.6858,64.4239
9.6858,64.4392
9.6859,64.4542
9.6860,64.4691
9.6864,64.4981
9.6870,64.5261
9.6878,64.5532
9.6888,64.5793
9.6900,64.6046
9.6914,64.6288
9.6929,64.6522
9.6947,64.6746
9.6967,64.6960
9.6989,64.7165
9.7012,64.7361
9.7038,64.7547
9.7066,64.7724
9.7095,64.7892
9.7111,64.7972
9.7145,64.8129
9.7184,64.8284
9.7228,64.8437
9.7279,64.8588
9.7335,64.8736
9.7396,64.8883
9.7463,64.9027
9.7536,64.9170
9.7615,64.9309
9.7699,64.9447
9.7789,64.9582
9.7885,64.9715
9.7987,64.9845
9.8095,64.9973
9.8208,65.0099
9.8327,65.0221
9.8535,65.0420
9.8748,65.0605
9.8968,65.0778
9.9193,65.0938
9.9425,65.1085
9.9662,65.1219
9.9905,65.1341
10.0154,65.1450
10.0410,65.1546
10.0671,65.1629
10.0937,65.1699
10.1210,65.1757
10.1489,65.1802
10.1774,65.1833
10.2064,65.1853
10.2212,65.1857
10.2361,65.1859
10.2626,65.1854
10.2887,65.1839
10.3144,65.1815
10.3396,65.1781
10.3643,65.1737
10.3885,65.1684
10.4122,65.1621
10.4354,65.1549
10.4580,65.1468
10.4800,65.1377
10.5014,65.1277
10.5223,65.1167
10.5425,65.1049
10.5621,65.0921
10.5810,65.0784
10.5993,65.0639
10.6169,65.0484
10.6337,65.0320
10.6499,65.0148
10.6653,64.9967
10.6799,64.9777
10.6938,64.9579
10.7069,64.9372
10.7192,64.9156
10.7307,64.8932
10.7413,64.8699
10.7510,64.8458
10.7599,64.8209
10.7679,64.7951
10.7750,64.7685
10.7812,64.7411
Z" /> 
<path style="fill:#000000; fill-opacity:1.0000; 
stroke:#000000; stroke-width:0.0000; stroke-opacity:1; 
stroke-linecap:round; stroke-linejoin:round;fill-rule:evenodd;"
d="M 11.9569,63.9223
11.9569,63.6618
10.8835,63.6618
10.8835,63.9223
11.2744,63.9223
11.2744,65.1625
11.5664,65.1625
11.5664,63.9223
Z" /> 
</g></g>
<g style="fill:#000000; fill-opacity:1.0000; 
stroke:#000000; stroke-width:0.3000; stroke-opacity:1; 
stroke-linecap:round; stroke-linejoin:round;">
</g>
<g style="fill:#000000; fill-opacity:0.0; 
stroke:#000000; stroke-width:0.3000; stroke-opacity:1; 
stroke-linecap:round; stroke-linejoin:round;">
<text x="23.6720" y="124.4720"
textLength="2.9412" font-size="2.0000" lengthAdjust="spacingAndGlyphs"
text-anchor="middle" opacity="0">FM</text>
<g class="stroked-text"><desc>FM</desc>
</g>
<g style="fill:#000000; fill-opacity:1.0000; 
stroke:#000000; stroke-width:0.0000; stroke-opacity:1; 
stroke-linecap:round; stroke-linejoin:round;">
<path style="fill:#000000; fill-opacity:1.0000; 
stroke:#000000; stroke-width:0.0000; stroke-opacity:1; 
stroke-linecap:round; stroke-linejoin:round;fill-rule:evenodd;"
d="M 23.3606,123.1043
23.3606,122.8438
22.3754,122.8438
22.3754,124.3445
22.6674,124.3445
22.6674,123.7348
23.2576,123.7348
23.2576,123.4747
22.6674,123.4747
22.6674,123.1043
Z" /> 
<path style="fill:#000000; fill-opacity:1.0000; 
stroke:#000000; stroke-width:0.0000; stroke-opacity:1; 
stroke-linecap:round; stroke-linejoin:round;fill-rule:evenodd;"
d="M 24.9686,124.3445
24.9686,122.8438
24.6806,122.8438
24.2923,123.6553
23.9017,122.8438
23.6137,122.8438
23.6137,124.3445
23.9057,124.3445
23.9057,123.4699
24.1933,124.0389
24.3908,124.0389
24.6766,123.4699
24.6766,124.3445
Z" /> 
</g></g>
<g style="fill:#000000; fill-opacity:1.0000; 
stroke:#000000; stroke-width:0.1500; stroke-opacity:1; 
stroke-linecap:round; stroke-linejoin:round;">
</g>
<g style="fill:#000000; fill-opacity:0.0; 
stroke:#000000; stroke-width:0.1500; stroke-opacity:1; 
stroke-linecap:round; stroke-linejoin:round;">
<text x="52.0625" y="52.8440"
textLength="3.1750" font-size="1.3333" lengthAdjust="spacingAndGlyphs"
text-anchor="middle" opacity="0">LOW</text>
<g class="stroked-text"><desc>LOW</desc>
<path d="M51.2768 52.6263
L50.8006 52.6263
" />
<path d="M50.8006 52.6263
L50.8006 51.6263
" />
<path d="M51.8006 51.6263
L51.9911 51.6263
" />
<path d="M51.9911 51.6263
L52.0863 51.6740
" />
<path d="M52.0863 51.6740
L52.1815 51.7692
" />
<path d="M52.1815 51.7692
L52.2292 51.9597
" />
<path d="M52.2292 51.9597
L52.2292 52.2930
" />
<path d="M52.2292 52.2930
L52.1815 52.4835
" />
<path d="M52.1815 52.4835
L52.0863 52.5787
" />
<path d="M52.0863 52.5787
L51.9911 52.6263
" />
<path d="M51.9911 52.6263
L51.8006 52.6263
" />
<path d="M51.8006 52.6263
L51.7054 52.5787
" />
<path d="M51.7054 52.5787
L51.6101 52.4835
" />
<path d="M51.6101 52.4835
L51.5625 52.2930
" />
<path d="M51.5625 52.2930
L51.5625 51.9597
" />
<path d="M51.5625 51.9597
L51.6101 51.7692
" />
<path d="M51.6101 51.7692
L51.7054 51.6740
" />
<path d="M51.7054 51.6740
L51.8006 51.6263
" />
<path d="M52.5625 51.6263
L52.8006 52.6263
" />
<path d="M52.8006 52.6263
L52.9911 51.9121
" />
<path d="M52.9911 51.9121
L53.1815 52.6263
" />
<path d="M53.1815 52.6263
L53.4196 51.6263
" />
</g><g >
</g>
<g >
</g>
<g >
</g>
<g >
</g>
<g >
</g>
<g >
</g>
<g >
</g>
<g >
</g>
<g >
</g>
<g >
</g>
<g >
</g>
<g >
</g>
<g >
</g>
<g >
</g>
<g >
</g>
<g >
</g>
<g >
</g>
<g >
</g>
<g >
</g>
<g >
</g>
<g >
</g>
<g >
</g>
<g >
</g>
<g >
</g>
<g >
</g>
<g >
</g>
</g>
<g style="fill:#000000; fill-opacity:0.0; 
stroke:#000000; stroke-width:0.1500; stroke-opacity:1; 
stroke-linecap:round; stroke-linejoin:round;">
</g>
<g style="fill:#000000; fill-opacity:0.0; 
stroke:#000000; stroke-width:0.1000; stroke-opacity:1; 
stroke-linecap:round; stroke-linejoin:round;">
<path d="M60.6500 20.3440
L0.0500 20.3440
" />
<path d="M60.6500 20.3440
L60.6500 148.8440
" />
<path d="M0.0500 148.8440
L60.6500 148.8440
" />
<path d="M0.0500 20.3440
L0.0500 148.8440
" />
</g>
<g style="fill:#000000; fill-opacity:0.0; 
stroke:#000000; stroke-width:0.1200; stroke-opacity:1; 
stroke-linecap:round; stroke-linejoin:round;">
<path d="M49.7500 42.9440
L49.7500 49.7440
" />
<path d="M49.7500 49.7440
L54.3500 49.7440
" />
<path d="M54.3500 42.9440
L49.7500 42.9440
" />
<path d="M54.3500 49.7440
L54.3500 42.9440
" />
<g >
</g>
<g >
</g>
<g >
</g>
<g >
</g>
<g >
</g>
<g >
</g>
<g >
</g>
<g >
</g>
<g >
</g>
<g >
</g>
<g >
</g>
<g >
</g>
<g >
</g>
<g >
</g>
<g >
</g>
<g >
</g>
<g >
</g>
<g >
</g>
<g >
</g>
<g >
</g>
<g >
</g>
<g >
</g>
<g >
</g>
<g >
</g>
<g >
</g>
<g >
</g>
</g> 
</svg>
