<?xml version="1.0" standalone="no"?>
 <!DOCTYPE svg PUBLIC "-//W3C//DTD SVG 1.1//EN" 
 "http://www.w3.org/Graphics/SVG/1.1/DTD/svg11.dtd"> 
<svg
  xmlns:svg="http://www.w3.org/2000/svg"
  xmlns="http://www.w3.org/2000/svg"
  xmlns:xlink="http://www.w3.org/1999/xlink"
  version="1.1"
  width="66.9798mm" height="150.4188mm" viewBox="0.0000 0.0000 66.9798 150.4188">
<title>SVG Image created as monad_panel_rev3_working-F_Mask.svg date 2024/07/29 10:06:22 </title>
  <desc>Image generated by PCBNEW </desc>
<g style="fill:#000000; fill-opacity:1.0000;stroke:#000000; stroke-opacity:1.0000;
stroke-linecap:round; stroke-linejoin:round;"
 transform="translate(0 0) scale(1 1)">
</g>
<g style="fill:#000000; fill-opacity:0.0; 
stroke:#000000; stroke-width:0.0000; stroke-opacity:1; 
stroke-linecap:round; stroke-linejoin:round;">
</g>
<g style="fill:#000000; fill-opacity:0.0; 
stroke:#000000; stroke-width:0.2000; stroke-opacity:1; 
stroke-linecap:round; stroke-linejoin:round;">
<path d="M47.9835 137.5940
L52.7835 137.5940
" />
<path d="M52.7835 137.5940
L52.7835 140.8440
" />
<path d="M52.7835 140.8440
L47.9835 140.8440
" />
<path d="M47.9835 140.8440
L47.9835 137.5940
" />
</g>
<g style="fill:#000000; fill-opacity:1.0000; 
stroke:#000000; stroke-width:0.0212; stroke-opacity:1; 
stroke-linecap:round; stroke-linejoin:round;">
<path style="fill:#000000; fill-opacity:1.0000; 
stroke:#000000; stroke-width:0.0000; stroke-opacity:1; 
stroke-linecap:round; stroke-linejoin:round;fill-rule:evenodd;"
d="M 47.9835,137.5940
52.7835,137.5940
52.7835,140.8440
47.9835,140.8440
" /> 
</g>
<g style="fill:#000000; fill-opacity:1.0000; 
stroke:#000000; stroke-width:0.0000; stroke-opacity:1; 
stroke-linecap:round; stroke-linejoin:round;">
<circle cx="52.0500" cy="32.3440" r="1.8375" /> 
</g>
<g style="fill:#000000; fill-opacity:1.0000; 
stroke:#000000; stroke-width:0.2000; stroke-opacity:1; 
stroke-linecap:round; stroke-linejoin:round;">
</g>
<g style="fill:#000000; fill-opacity:0.0; 
stroke:#000000; stroke-width:0.2000; stroke-opacity:1; 
stroke-linecap:round; stroke-linejoin:round;">
<path d="M7.4905 137.6190
L12.4405 137.6190
" />
<path d="M12.4405 137.6190
L12.4405 140.8190
" />
<path d="M12.4405 140.8190
L7.4905 140.8190
" />
<path d="M7.4905 140.8190
L7.4905 137.6190
" />
</g>
<g style="fill:#000000; fill-opacity:1.0000; 
stroke:#000000; stroke-width:0.0212; stroke-opacity:1; 
stroke-linecap:round; stroke-linejoin:round;">
<path style="fill:#000000; fill-opacity:1.0000; 
stroke:#000000; stroke-width:0.0000; stroke-opacity:1; 
stroke-linecap:round; stroke-linejoin:round;fill-rule:evenodd;"
d="M 7.4905,137.6190
12.4405,137.6190
12.4405,140.8190
7.4905,140.8190
" /> 
</g>
<g style="fill:#000000; fill-opacity:1.0000; 
stroke:#000000; stroke-width:0.2000; stroke-opacity:1; 
stroke-linecap:round; stroke-linejoin:round;">
</g>
<g style="fill:#000000; fill-opacity:0.0; 
stroke:#000000; stroke-width:0.2000; stroke-opacity:1; 
stroke-linecap:round; stroke-linejoin:round;">
<path d="M34.5715 137.6190
L39.5215 137.6190
" />
<path d="M39.5215 137.6190
L39.5215 140.8190
" />
<path d="M39.5215 140.8190
L34.5715 140.8190
" />
<path d="M34.5715 140.8190
L34.5715 137.6190
" />
</g>
<g style="fill:#000000; fill-opacity:1.0000; 
stroke:#000000; stroke-width:0.0212; stroke-opacity:1; 
stroke-linecap:round; stroke-linejoin:round;">
<path style="fill:#000000; fill-opacity:1.0000; 
stroke:#000000; stroke-width:0.0000; stroke-opacity:1; 
stroke-linecap:round; stroke-linejoin:round;fill-rule:evenodd;"
d="M 34.5715,137.6190
39.5215,137.6190
39.5215,140.8190
34.5715,140.8190
" /> 
</g>
<g style="fill:#000000; fill-opacity:1.0000; 
stroke:#000000; stroke-width:0.1000; stroke-opacity:1; 
stroke-linecap:round; stroke-linejoin:round;">
</g>
<g style="fill:#000000; fill-opacity:0.0; 
stroke:#000000; stroke-width:0.1000; stroke-opacity:1; 
stroke-linecap:round; stroke-linejoin:round;">
<path d="M33.4700 122.0540
L40.8600 122.0540
" />
<path d="M40.8600 122.0540
L40.8600 125.2540
" />
<path d="M40.8600 125.2540
L33.4700 125.2540
" />
<path d="M33.4700 125.2540
L33.4700 122.0540
" />
</g>
<g style="fill:#000000; fill-opacity:1.0000; 
stroke:#000000; stroke-width:0.0212; stroke-opacity:1; 
stroke-linecap:round; stroke-linejoin:round;">
<path style="fill:#000000; fill-opacity:1.0000; 
stroke:#000000; stroke-width:0.0000; stroke-opacity:1; 
stroke-linecap:round; stroke-linejoin:round;fill-rule:evenodd;"
d="M 33.4700,122.0540
40.8600,122.0540
40.8600,125.2540
33.4700,125.2540
" /> 
</g>
<g style="fill:#000000; fill-opacity:1.0000; 
stroke:#000000; stroke-width:0.1000; stroke-opacity:1; 
stroke-linecap:round; stroke-linejoin:round;">
</g>
<g style="fill:#000000; fill-opacity:0.0; 
stroke:#000000; stroke-width:0.1000; stroke-opacity:1; 
stroke-linecap:round; stroke-linejoin:round;">
<path d="M45.8125 122.0940
L54.4125 122.0940
" />
<path d="M54.4125 122.0940
L54.4125 125.2940
" />
<path d="M54.4125 125.2940
L45.8125 125.2940
" />
<path d="M45.8125 125.2940
L45.8125 122.0940
" />
</g>
<g style="fill:#000000; fill-opacity:1.0000; 
stroke:#000000; stroke-width:0.0212; stroke-opacity:1; 
stroke-linecap:round; stroke-linejoin:round;">
<path style="fill:#000000; fill-opacity:1.0000; 
stroke:#000000; stroke-width:0.0000; stroke-opacity:1; 
stroke-linecap:round; stroke-linejoin:round;fill-rule:evenodd;"
d="M 45.8125,122.0940
54.4125,122.0940
54.4125,125.2940
45.8125,125.2940
" /> 
</g>
<g style="fill:#000000; fill-opacity:1.0000; 
stroke:#000000; stroke-width:0.2000; stroke-opacity:1; 
stroke-linecap:round; stroke-linejoin:round;">
</g>
<g style="fill:#000000; fill-opacity:0.0; 
stroke:#000000; stroke-width:0.2000; stroke-opacity:1; 
stroke-linecap:round; stroke-linejoin:round;">
<path d="M49.4875 42.6565
L54.6125 42.6565
" />
<path d="M54.6125 42.6565
L54.6125 50.0315
" />
<path d="M54.6125 50.0315
L49.4875 50.0315
" />
<path d="M49.4875 50.0315
L49.4875 42.6565
" />
</g>
<g style="fill:#000000; fill-opacity:1.0000; 
stroke:#000000; stroke-width:0.0212; stroke-opacity:1; 
stroke-linecap:round; stroke-linejoin:round;">
<path style="fill:#000000; fill-opacity:1.0000; 
stroke:#000000; stroke-width:0.0000; stroke-opacity:1; 
stroke-linecap:round; stroke-linejoin:round;fill-rule:evenodd;"
d="M 49.4875,42.6565
54.6125,42.6565
54.6125,50.0315
49.4875,50.0315
" /> 
</g>
<g style="fill:#000000; fill-opacity:1.0000; 
stroke:#000000; stroke-width:0.2000; stroke-opacity:1; 
stroke-linecap:round; stroke-linejoin:round;">
</g>
<g style="fill:#000000; fill-opacity:0.0; 
stroke:#000000; stroke-width:0.2000; stroke-opacity:1; 
stroke-linecap:round; stroke-linejoin:round;">
<path d="M20.9970 137.6190
L25.9470 137.6190
" />
<path d="M25.9470 137.6190
L25.9470 140.8190
" />
<path d="M25.9470 140.8190
L20.9970 140.8190
" />
<path d="M20.9970 140.8190
L20.9970 137.6190
" />
</g>
<g style="fill:#000000; fill-opacity:1.0000; 
stroke:#000000; stroke-width:0.0212; stroke-opacity:1; 
stroke-linecap:round; stroke-linejoin:round;">
<path style="fill:#000000; fill-opacity:1.0000; 
stroke:#000000; stroke-width:0.0000; stroke-opacity:1; 
stroke-linecap:round; stroke-linejoin:round;fill-rule:evenodd;"
d="M 20.9970,137.6190
25.9470,137.6190
25.9470,140.8190
20.9970,140.8190
" /> 
</g>
<g style="fill:#000000; fill-opacity:0.0; 
stroke:#000000; stroke-width:0.5000; stroke-opacity:1; 
stroke-linecap:round; stroke-linejoin:round;">
<circle cx="31.1000" cy="46.3968" r="14.3500" /> 
</g>
<g style="fill:#000000; fill-opacity:0.0; 
stroke:#000000; stroke-width:0.3750; stroke-opacity:1; 
stroke-linecap:round; stroke-linejoin:round;">
<text x="30.3500" y="24.8440"
textLength="17.5063" font-size="4.0000" lengthAdjust="spacingAndGlyphs"
text-anchor="middle" opacity="0">M O N A D</text>
<g class="stroked-text"><desc>M O N A D</desc>
</g>
<g style="fill:#000000; fill-opacity:1.0000; 
stroke:#000000; stroke-width:0.0000; stroke-opacity:1; 
stroke-linecap:round; stroke-linejoin:round;">
<path style="fill:#000000; fill-opacity:1.0000; 
stroke:#000000; stroke-width:0.0000; stroke-opacity:1; 
stroke-linecap:round; stroke-linejoin:round;fill-rule:evenodd;"
d="M 23.8632,24.5890
23.8632,22.6758
23.3400,24.5890
22.7575,24.5890
22.2387,22.6846
22.2387,24.5890
21.6935,24.5890
21.6935,21.7753
22.5552,21.7753
23.0615,23.8445
23.5679,21.7753
24.4120,21.7753
24.4120,24.5890
Z" /> 
<path style="fill:#000000; fill-opacity:1.0000; 
stroke:#000000; stroke-width:0.0000; stroke-opacity:1; 
stroke-linecap:round; stroke-linejoin:round;fill-rule:evenodd;"
d="M 26.9768,21.6819
27.0161,21.6831
27.0548,21.6852
27.0930,21.6880
27.1307,21.6917
27.1678,21.6961
27.2043,21.7014
27.2403,21.7075
27.2757,21.7144
27.3106,21.7221
27.3450,21.7307
27.3788,21.7400
27.4120,21.7502
27.4447,21.7612
27.4769,21.7729
27.5085,21.7855
27.5396,21.7988
27.5700,21.8129
27.5998,21.8277
27.6290,21.8432
27.6575,21.8595
27.6853,21.8765
27.7125,21.8943
27.7391,21.9129
27.7650,21.9321
27.7903,21.9522
27.8149,21.9730
27.8389,21.9945
27.8622,22.0168
27.8849,22.0398
27.9069,22.0636
27.9283,22.0882
27.9492,22.1133
27.9694,22.1392
27.9890,22.1657
28.0079,22.1929
28.0262,22.2208
28.0439,22.2493
28.0610,22.2786
28.0774,22.3085
28.0932,22.3391
28.1084,22.3704
28.1230,22.4024
28.1369,22.4351
28.1502,22.4684
28.1628,22.5024
28.1749,22.5371
28.1863,22.5725
28.1970,22.6085
28.2070,22.6451
28.2164,22.6823
28.2250,22.7200
28.2330,22.7583
28.2403,22.7972
28.2469,22.8367
28.2527,22.8768
28.2579,22.9174
28.2624,22.9586
28.2663,23.0004
28.2694,23.0428
28.2718,23.0857
28.2735,23.1292
28.2746,23.1733
28.2749,23.2180
28.2746,23.2632
28.2736,23.3077
28.2719,23.3514
28.2695,23.3945
28.2665,23.4368
28.2628,23.4785
28.2584,23.5195
28.2534,23.5597
28.2477,23.5993
28.2413,23.6381
28.2342,23.6762
28.2265,23.7137
28.2181,23.7504
28.2090,23.7865
28.1992,23.8218
28.1888,23.8564
28.1777,23.8903
28.1659,23.9236
28.1535,23.9561
28.1404,23.9879
28.1266,24.0190
28.1121,24.0494
28.0970,24.0791
28.0812,24.1082
28.0647,24.1365
28.0476,24.1641
28.0297,24.1910
28.0112,24.2172
27.9921,24.2427
27.9722,24.2674
27.9517,24.2915
27.9305,24.3149
27.9088,24.3376
27.8864,24.3595
27.8634,24.3807
27.8398,24.4011
27.8157,24.4209
27.7909,24.4399
27.7655,24.4582
27.7396,24.4758
27.7130,24.4927
27.6858,24.5089
27.6581,24.5243
27.6297,24.5391
27.6008,24.5531
27.5712,24.5664
27.5411,24.5789
27.5103,24.5908
27.4790,24.6019
27.4470,24.6123
27.4145,24.6220
27.3813,24.6310
27.3476,24.6393
27.3132,24.6468
27.2783,24.6537
27.2428,24.6598
27.2066,24.6652
27.1699,24.6698
27.1326,24.6738
27.0946,24.6770
27.0561,24.6795
27.0170,24.6813
26.9773,24.6824
26.9369,24.6828
26.8966,24.6824
26.8569,24.6813
26.8177,24.6794
26.7792,24.6768
26.7412,24.6734
26.7038,24.6694
26.6670,24.6645
26.6308,24.6589
26.5952,24.6526
26.5602,24.6455
26.5257,24.6377
26.4919,24.6292
26.4586,24.6199
26.4259,24.6098
26.3938,24.5990
26.3623,24.5875
26.3314,24.5752
26.3011,24.5622
26.2713,24.5484
26.2422,24.5339
26.2136,24.5187
26.1856,24.5027
26.1583,24.4859
26.1315,24.4684
26.1052,24.4502
26.0796,24.4312
26.0546,24.4115
26.0301,24.3910
26.0063,24.3698
25.9830,24.3479
25.9603,24.3252
25.9382,24.3017
25.9168,24.2776
25.8961,24.2528
25.8760,24.2274
25.8567,24.2013
25.8380,24.1745
25.8200,24.1471
25.8026,24.1190
25.7860,24.0903
25.7700,24.0610
25.7547,24.0310
25.7401,24.0003
25.7262,23.9690
25.7129,23.9370
25.7003,23.9044
25.6884,23.8711
25.6772,23.8372
25.6667,23.8026
25.6568,23.7674
25.6476,23.7315
25.6391,23.6949
25.6313,23.6577
25.6242,23.6199
25.6177,23.5814
25.6119,23.5423
25.6068,23.5025
25.6024,23.4620
25.5987,23.4209
25.5956,23.3791
25.5933,23.3367
25.5916,23.2937
25.5905,23.2499
25.5902,23.2092
26.1691,23.2092
26.1692,23.2401
26.1698,23.2705
26.1708,23.3003
26.1722,23.3296
26.1761,23.3867
26.1816,23.4416
26.1886,23.4945
26.1972,23.5452
26.2073,23.5939
26.2191,23.6404
26.2323,23.6849
26.2472,23.7273
26.2636,23.7676
26.2816,23.8058
26.3011,23.8419
26.3222,23.8759
26.3449,23.9078
26.3691,23.9376
26.3948,23.9653
26.4219,23.9913
26.4502,24.0155
26.4799,24.0379
26.5108,24.0585
26.5431,24.0773
26.5766,24.0943
26.6114,24.1096
26.6476,24.1230
26.6850,24.1347
26.7238,24.1445
26.7638,24.1526
26.8051,24.1588
26.8478,24.1633
26.8917,24.1660
26.9369,24.1669
26.9757,24.1660
27.0139,24.1634
27.0516,24.1590
27.0888,24.1528
27.1255,24.1449
27.1616,24.1352
27.1972,24.1237
27.2322,24.1105
27.2665,24.0953
27.2996,24.0783
27.3316,24.0594
27.3625,24.0387
27.3922,24.0162
27.4209,23.9918
27.4484,23.9656
27.4748,23.9376
27.4938,23.9152
27.5120,23.8916
27.5294,23.8669
27.5461,23.8411
27.5620,23.8142
27.5771,23.7861
27.5914,23.7569
27.6050,23.7265
27.6178,23.6951
27.6298,23.6624
27.6374,23.6401
27.6480,23.6054
27.6576,23.5696
27.6661,23.5325
27.6736,23.4943
27.6800,23.4549
27.6854,23.4143
27.6898,23.3725
27.6931,23.3296
27.6947,23.3003
27.6959,23.2705
27.6966,23.2401
27.6968,23.2092
27.6966,23.1784
27.6960,23.1480
27.6951,23.1181
27.6938,23.0886
27.6900,23.0311
27.6847,22.9755
27.6778,22.9218
27.6695,22.8699
27.6596,22.8199
27.6482,22.7718
27.6354,22.7256
27.6209,22.6812
27.6050,22.6387
27.5876,22.5981
27.5686,22.5594
27.5481,22.5226
27.5261,22.4876
27.5026,22.4545
27.4777,22.4234
27.4513,22.3942
27.4236,22.3671
27.3944,22.3420
27.3639,22.3189
27.3321,22.2978
27.2988,22.2787
27.2641,22.2616
27.2281,22.2466
27.1906,22.2335
27.1518,22.2225
27.1116,22.2134
27.0700,22.2064
27.0271,22.2014
26.9827,22.1983
26.9369,22.1973
26.8912,22.1983
26.8468,22.2014
26.8037,22.2064
26.7620,22.2134
26.7217,22.2225
26.6826,22.2335
26.6450,22.2466
26.6087,22.2616
26.5737,22.2787
26.5401,22.2978
26.5079,22.3189
26.4770,22.3420
26.4474,22.3671
26.4192,22.3942
26.3924,22.4234
26.3669,22.4545
26.3429,22.4876
26.3205,22.5226
26.2997,22.5594
26.2803,22.5981
26.2626,22.6387
26.2463,22.6812
26.2316,22.7256
26.2185,22.7718
26.2069,22.8199
26.1969,22.8699
26.1884,22.9218
26.1814,22.9755
26.1760,23.0311
26.1721,23.0886
26.1708,23.1181
26.1698,23.1480
26.1692,23.1784
26.1691,23.2092
25.5902,23.2092
25.5902,23.2056
25.5905,23.1613
25.5916,23.1177
25.5933,23.0746
25.5957,23.0321
25.5989,22.9901
25.6027,22.9487
25.6072,22.9079
25.6124,22.8676
25.6182,22.8279
25.6248,22.7888
25.6321,22.7502
25.6401,22.7122
25.6487,22.6748
25.6581,22.6379
25.6681,22.6016
25.6789,22.5659
25.6903,22.5308
25.7023,22.4964
25.7151,22.4626
25.7285,22.4296
25.7425,22.3972
25.7572,22.3655
25.7726,22.3345
25.7886,22.3041
25.8053,22.2745
25.8226,22.2455
25.8406,22.2172
25.8592,22.1896
25.8786,22.1627
25.8985,22.1364
25.9192,22.1108
25.9404,22.0860
25.9624,22.0617
25.9850,22.0381
26.0082,22.0153
26.0319,21.9933
26.0563,21.9719
26.0812,21.9513
26.1067,21.9314
26.1328,21.9123
26.1595,21.8939
26.1867,21.8762
26.2145,21.8593
26.2430,21.8431
26.2720,21.8276
26.3016,21.8128
26.3317,21.7988
26.3625,21.7855
26.3939,21.7729
26.4260,21.7612
26.4586,21.7502
26.4918,21.7400
26.5256,21.7307
26.5601,21.7221
26.5951,21.7144
26.6307,21.7075
26.6669,21.7014
26.7037,21.6961
26.7411,21.6917
26.7790,21.6880
26.8176,21.6852
26.8568,21.6831
26.8966,21.6819
26.9369,21.6815
Z" /> 
<path style="fill:#000000; fill-opacity:1.0000; 
stroke:#000000; stroke-width:0.0000; stroke-opacity:1; 
stroke-linecap:round; stroke-linejoin:round;fill-rule:evenodd;"
d="M 31.1919,24.5890
29.9939,22.6846
29.9939,24.5890
29.4487,24.5890
29.4487,21.7284
30.0694,21.7284
31.1838,23.5771
31.1838,21.7284
31.7327,21.7284
31.7327,24.5890
Z" /> 
<path style="fill:#000000; fill-opacity:1.0000; 
stroke:#000000; stroke-width:0.0000; stroke-opacity:1; 
stroke-linecap:round; stroke-linejoin:round;fill-rule:evenodd;"
d="M 35.5260,24.5890
34.8885,24.5890
34.7112,23.9757
33.6773,23.9757
33.4788,24.5890
32.8581,24.5890
33.2384,23.5104
33.8290,23.5104
34.5427,23.5104
34.1917,22.3966
34.1880,22.3966
33.8290,23.5104
33.2384,23.5104
33.8583,21.7518
34.5383,21.7518
Z" /> 
<path style="fill:#000000; fill-opacity:1.0000; 
stroke:#000000; stroke-width:0.0000; stroke-opacity:1; 
stroke-linecap:round; stroke-linejoin:round;fill-rule:evenodd;"
d="M 37.7733,21.7288
37.8081,21.7299
37.8427,21.7318
37.8769,21.7345
37.9107,21.7379
37.9442,21.7421
37.9774,21.7470
38.0103,21.7528
38.0428,21.7592
38.0750,21.7665
38.1069,21.7745
38.1384,21.7832
38.1696,21.7927
38.2005,21.8030
38.2311,21.8140
38.2613,21.8258
38.2910,21.8383
38.3203,21.8513
38.3489,21.8651
38.3771,21.8795
38.4047,21.8945
38.4317,21.9102
38.4582,21.9266
38.4842,21.9436
38.5096,21.9613
38.5345,21.9797
38.5588,21.9987
38.5826,22.0183
38.6059,22.0386
38.6286,22.0596
38.6507,22.0813
38.6723,22.1035
38.6935,22.1264
38.7140,22.1498
38.7340,22.1739
38.7534,22.1986
38.7722,22.2239
38.7904,22.2498
38.8081,22.2763
38.8251,22.3034
38.8416,22.3311
38.8575,22.3595
38.8728,22.3884
38.8875,22.4180
38.9016,22.4482
38.9152,22.4790
38.9281,22.5104
38.9405,22.5425
38.9523,22.5751
38.9633,22.6082
38.9736,22.6419
38.9831,22.6761
38.9919,22.7108
38.9999,22.7461
39.0071,22.7820
39.0136,22.8183
39.0193,22.8552
39.0243,22.8927
39.0284,22.9307
39.0319,22.9692
39.0345,23.0082
39.0364,23.0478
39.0376,23.0880
39.0380,23.1286
39.0376,23.1693
39.0366,23.2096
39.0349,23.2494
39.0326,23.2888
39.0295,23.3277
39.0258,23.3661
39.0214,23.4041
39.0163,23.4417
39.0106,23.4788
39.0042,23.5154
38.9971,23.5516
38.9893,23.5874
38.9809,23.6227
38.9718,23.6575
38.9620,23.6919
38.9515,23.7258
38.9404,23.7591
38.9287,23.7918
38.9165,23.8239
38.9036,23.8555
38.8902,23.8864
38.8762,23.9167
38.8617,23.9464
38.8465,23.9755
38.8308,24.0040
38.8145,24.0319
38.7976,24.0592
38.7802,24.0859
38.7621,24.1120
38.7435,24.1375
38.7243,24.1624
38.7046,24.1867
38.6843,24.2103
38.6635,24.2332
38.6422,24.2554
38.6204,24.2770
38.5981,24.2978
38.5753,24.3181
38.5520,24.3376
38.5282,24.3565
38.5039,24.3747
38.4791,24.3923
38.4538,24.4091
38.4280,24.4253
38.4017,24.4409
38.3749,24.4557
38.3477,24.4699
38.3199,24.4834
38.2918,24.4962
38.2633,24.5082
38.2345,24.5193
38.2053,24.5296
38.1757,24.5391
38.1458,24.5477
38.1155,24.5556
38.0849,24.5626
38.0539,24.5688
38.0225,24.5741
37.9908,24.5787
37.9587,24.5824
37.9263,24.5853
37.8935,24.5873
37.8603,24.5885
37.8268,24.5890
36.6529,24.5890
36.6529,22.1937
37.2230,22.1937
37.2230,24.1237
37.7081,24.1237
37.7553,24.1227
37.8009,24.1198
37.8449,24.1149
37.8872,24.1081
37.9278,24.0993
37.9668,24.0885
38.0041,24.0759
38.0398,24.0612
38.0738,24.0446
38.1062,24.0261
38.1369,24.0056
38.1660,23.9831
38.1934,23.9587
38.2191,23.9324
38.2432,23.9041
38.2657,23.8738
38.2866,23.8415
38.3062,23.8073
38.3244,23.7711
38.3413,23.7330
38.3569,23.6929
38.3710,23.6508
38.3839,23.6069
38.3954,23.5609
38.4055,23.5131
38.4143,23.4633
38.4217,23.4115
38.4278,23.3578
38.4325,23.3021
38.4359,23.2445
38.4371,23.2150
38.4379,23.1850
38.4384,23.1545
38.4386,23.1235
38.4384,23.0927
38.4379,23.0625
38.4371,23.0329
38.4352,22.9895
38.4326,22.9473
38.4293,22.9064
38.4251,22.8668
38.4203,22.8284
38.4147,22.7913
38.4083,22.7555
38.4012,22.7209
38.3961,22.6985
38.3878,22.6658
38.3785,22.6343
38.3684,22.6039
38.3572,22.5746
38.3452,22.5465
38.3322,22.5194
38.3182,22.4936
38.2982,22.4608
38.2765,22.4301
38.2591,22.4084
38.2346,22.3811
38.2085,22.3558
38.1807,22.3325
38.1512,22.3111
38.1200,22.2916
38.0872,22.2741
38.0527,22.2586
38.0165,22.2450
37.9882,22.2358
37.9588,22.2275
37.9283,22.2202
37.8967,22.2137
37.8639,22.2081
37.8301,22.2035
37.7951,22.1997
37.7591,22.1969
37.7219,22.1949
37.6836,22.1939
37.6575,22.1937
37.2230,22.1937
36.6529,22.1937
36.6529,21.7284
37.7381,21.7284
Z" /> 
</g></g>
<g style="fill:#000000; fill-opacity:1.0000; 
stroke:#000000; stroke-width:0.3000; stroke-opacity:1; 
stroke-linecap:round; stroke-linejoin:round;">
</g>
<g style="fill:#000000; fill-opacity:0.0; 
stroke:#000000; stroke-width:0.3000; stroke-opacity:1; 
stroke-linecap:round; stroke-linejoin:round;">
<text x="50.1000" y="124.5440"
textLength="7.1837" font-size="2.0000" lengthAdjust="spacingAndGlyphs"
text-anchor="middle" opacity="0">MORPH</text>
<g class="stroked-text"><desc>MORPH</desc>
</g>
<g style="fill:#000000; fill-opacity:1.0000; 
stroke:#000000; stroke-width:0.0000; stroke-opacity:1; 
stroke-linecap:round; stroke-linejoin:round;">
<path style="fill:#000000; fill-opacity:1.0000; 
stroke:#000000; stroke-width:0.0000; stroke-opacity:1; 
stroke-linecap:round; stroke-linejoin:round;fill-rule:evenodd;"
d="M 48.0370,124.4165
48.0370,122.9158
47.7490,122.9158
47.3607,123.7273
46.9701,122.9158
46.6822,122.9158
46.6822,124.4165
46.9742,124.4165
46.9742,123.5419
47.2618,124.1109
47.4592,124.1109
47.7450,123.5419
47.7450,124.4165
Z" /> 
<path style="fill:#000000; fill-opacity:1.0000; 
stroke:#000000; stroke-width:0.0000; stroke-opacity:1; 
stroke-linecap:round; stroke-linejoin:round;fill-rule:evenodd;"
d="M 48.9028,122.9160
48.9184,122.9165
48.9338,122.9174
48.9489,122.9186
48.9638,122.9201
48.9784,122.9220
49.0071,122.9267
49.0348,122.9327
49.0617,122.9400
49.0878,122.9486
49.1131,122.9585
49.1376,122.9695
49.1614,122.9818
49.1845,122.9953
49.2069,123.0100
49.2287,123.0258
49.2498,123.0427
49.2703,123.0608
49.2903,123.0800
49.3041,123.0943
49.3169,123.1088
49.3290,123.1235
49.3402,123.1385
49.3506,123.1537
49.3603,123.1691
49.3692,123.1848
49.3775,123.2008
49.3850,123.2170
49.3920,123.2335
49.3983,123.2503
49.4040,123.2673
49.4092,123.2847
49.4138,123.3023
49.4180,123.3203
49.4216,123.3385
49.4249,123.3571
49.4277,123.3760
49.4301,123.3952
49.4322,123.4148
49.4339,123.4347
49.4353,123.4549
49.4365,123.4755
49.4374,123.4965
49.4381,123.5178
49.4386,123.5395
49.4390,123.5616
49.4392,123.5840
49.4394,123.6069
49.4394,123.6301
49.4394,123.6538
49.4394,123.6779
49.4394,123.7020
49.4394,123.7257
49.4394,123.7490
49.4392,123.7718
49.4390,123.7943
49.4386,123.8164
49.4381,123.8382
49.4374,123.8595
49.4365,123.8805
49.4353,123.9011
49.4339,123.9214
49.4322,123.9413
49.4301,123.9608
49.4277,123.9801
49.4249,123.9990
49.4216,124.0175
49.4180,124.0358
49.4138,124.0537
49.4092,124.0714
49.4040,124.0887
49.3983,124.1058
49.3920,124.1226
49.3850,124.1391
49.3775,124.1553
49.3692,124.1713
49.3603,124.1870
49.3506,124.2024
49.3402,124.2176
49.3290,124.2326
49.3169,124.2473
49.3041,124.2619
49.2903,124.2761
49.2703,124.2953
49.2498,124.3134
49.2287,124.3303
49.2069,124.3461
49.1845,124.3607
49.1614,124.3742
49.1376,124.3864
49.1131,124.3975
49.0878,124.4073
49.0617,124.4158
49.0348,124.4231
49.0071,124.4291
48.9784,124.4338
48.9638,124.4357
48.9489,124.4372
48.9338,124.4384
48.9184,124.4392
48.9028,124.4397
48.8870,124.4399
48.8711,124.4397
48.8556,124.4392
48.8402,124.4384
48.8251,124.4372
48.8102,124.4357
48.7955,124.4338
48.7667,124.4291
48.7388,124.4231
48.7118,124.4158
48.6855,124.4073
48.6601,124.3975
48.6353,124.3864
48.6114,124.3742
48.5881,124.3607
48.5655,124.3461
48.5436,124.3303
48.5224,124.3134
48.5018,124.2953
48.4818,124.2761
48.4680,124.2619
48.4552,124.2473
48.4432,124.2326
48.4320,124.2176
48.4216,124.2024
48.4120,124.1870
48.4031,124.1713
48.3950,124.1553
48.3875,124.1391
48.3806,124.1226
48.3744,124.1058
48.3688,124.0887
48.3637,124.0714
48.3592,124.0537
48.3551,124.0358
48.3516,124.0175
48.3484,123.9990
48.3457,123.9801
48.3434,123.9608
48.3414,123.9413
48.3398,123.9214
48.3385,123.9011
48.3374,123.8805
48.3365,123.8595
48.3359,123.8382
48.3354,123.8164
48.3351,123.7943
48.3350,123.7718
48.3349,123.7490
48.3348,123.7257
48.3348,123.7020
48.3349,123.6779
48.6268,123.6779
48.6269,123.7043
48.6270,123.7295
48.6273,123.7535
48.6276,123.7764
48.6280,123.7981
48.6286,123.8187
48.6292,123.8383
48.6300,123.8568
48.6309,123.8744
48.6320,123.8910
48.6331,123.9067
48.6345,123.9216
48.6375,123.9490
48.6412,123.9733
48.6456,123.9951
48.6506,124.0145
48.6564,124.0319
48.6630,124.0476
48.6704,124.0619
48.6787,124.0751
48.6878,124.0876
48.6979,124.0996
48.7104,124.1127
48.7242,124.1249
48.7392,124.1361
48.7553,124.1462
48.7725,124.1551
48.7907,124.1628
48.8098,124.1691
48.8298,124.1741
48.8506,124.1775
48.8722,124.1794
48.8870,124.1798
48.9018,124.1794
48.9233,124.1775
48.9440,124.1741
48.9638,124.1691
48.9827,124.1628
49.0006,124.1551
49.0175,124.1462
49.0333,124.1361
49.0481,124.1249
49.0617,124.1127
49.0742,124.0996
49.0843,124.0876
49.0935,124.0751
49.1019,124.0619
49.1094,124.0476
49.1162,124.0319
49.1222,124.0145
49.1274,123.9951
49.1320,123.9733
49.1359,123.9490
49.1391,123.9216
49.1406,123.9067
49.1418,123.8910
49.1429,123.8744
49.1439,123.8568
49.1448,123.8383
49.1455,123.8187
49.1461,123.7981
49.1466,123.7764
49.1470,123.7535
49.1472,123.7295
49.1474,123.7043
49.1475,123.6779
49.1474,123.6514
49.1472,123.6263
49.1470,123.6023
49.1466,123.5795
49.1461,123.5578
49.1455,123.5372
49.1448,123.5176
49.1439,123.4991
49.1429,123.4815
49.1418,123.4649
49.1406,123.4492
49.1391,123.4343
49.1359,123.4070
49.1320,123.3826
49.1274,123.3608
49.1222,123.3414
49.1162,123.3240
49.1094,123.3084
49.1019,123.2941
49.0935,123.2809
49.0843,123.2685
49.0742,123.2566
49.0617,123.2434
49.0481,123.2312
49.0333,123.2200
49.0175,123.2099
49.0006,123.2010
48.9827,123.1933
48.9638,123.1870
48.9440,123.1821
48.9233,123.1786
48.9018,123.1767
48.8870,123.1763
48.8722,123.1767
48.8506,123.1786
48.8298,123.1821
48.8098,123.1870
48.7907,123.1933
48.7725,123.2010
48.7553,123.2099
48.7392,123.2200
48.7242,123.2312
48.7104,123.2434
48.6979,123.2566
48.6878,123.2685
48.6787,123.2809
48.6704,123.2941
48.6630,123.3084
48.6564,123.3240
48.6506,123.3414
48.6456,123.3608
48.6412,123.3826
48.6375,123.4070
48.6345,123.4343
48.6331,123.4492
48.6320,123.4649
48.6309,123.4815
48.6300,123.4991
48.6292,123.5176
48.6286,123.5372
48.6280,123.5578
48.6276,123.5795
48.6273,123.6023
48.6270,123.6263
48.6269,123.6514
48.6268,123.6779
48.3349,123.6779
48.3348,123.6538
48.3348,123.6301
48.3349,123.6069
48.3350,123.5840
48.3351,123.5616
48.3354,123.5395
48.3359,123.5178
48.3365,123.4965
48.3374,123.4755
48.3385,123.4549
48.3398,123.4347
48.3414,123.4148
48.3434,123.3952
48.3457,123.3760
48.3484,123.3571
48.3516,123.3385
48.3551,123.3203
48.3592,123.3023
48.3637,123.2847
48.3688,123.2673
48.3744,123.2503
48.3806,123.2335
48.3875,123.2170
48.3950,123.2008
48.4031,123.1848
48.4120,123.1691
48.4216,123.1537
48.4320,123.1385
48.4432,123.1235
48.4552,123.1088
48.4680,123.0943
48.4818,123.0800
48.5018,123.0608
48.5224,123.0427
48.5436,123.0258
48.5655,123.0100
48.5881,122.9953
48.6114,122.9818
48.6353,122.9695
48.6601,122.9585
48.6855,122.9486
48.7118,122.9400
48.7388,122.9327
48.7667,122.9267
48.7955,122.9220
48.8102,122.9201
48.8251,122.9186
48.8402,122.9174
48.8556,122.9165
48.8711,122.9160
48.8870,122.9158
Z" /> 
<path style="fill:#000000; fill-opacity:1.0000; 
stroke:#000000; stroke-width:0.0000; stroke-opacity:1; 
stroke-linecap:round; stroke-linejoin:round;fill-rule:evenodd;"
d="M 50.3506,122.9164
50.3780,122.9182
50.4047,122.9212
50.4306,122.9253
50.4558,122.9304
50.4802,122.9367
50.5038,122.9440
50.5266,122.9523
50.5486,122.9615
50.5698,122.9717
50.5901,122.9829
50.6097,122.9949
50.6283,123.0078
50.6461,123.0215
50.6630,123.0359
50.6791,123.0512
50.6942,123.0672
50.7085,123.0839
50.7218,123.1013
50.7342,123.1193
50.7457,123.1379
50.7563,123.1571
50.7659,123.1769
50.7745,123.1971
50.7821,123.2179
50.7888,123.2391
50.7944,123.2608
50.7991,123.2829
50.8027,123.3053
50.8053,123.3281
50.8069,123.3512
50.8074,123.3745
50.8071,123.3940
50.8060,123.4131
50.8042,123.4316
50.8017,123.4497
50.7985,123.4674
50.7947,123.4845
50.7902,123.5012
50.7852,123.5175
50.7795,123.5332
50.7733,123.5485
50.7665,123.5633
50.7592,123.5777
50.7515,123.5916
50.7432,123.6050
50.7344,123.6180
50.7252,123.6305
50.7156,123.6425
50.7056,123.6541
50.6952,123.6652
50.6845,123.6759
50.6734,123.6861
50.6619,123.6958
50.6502,123.7051
50.6382,123.7139
50.6259,123.7222
50.6134,123.7301
50.6007,123.7376
50.5878,123.7446
50.5614,123.7572
50.5345,123.7680
50.8683,124.4165
50.5301,124.4165
50.2381,123.8160
50.0282,123.8160
50.0282,124.4165
49.7362,124.4165
49.7362,123.1763
50.0282,123.1763
50.0282,123.5724
50.3033,123.5724
50.3268,123.5714
50.3493,123.5686
50.3705,123.5640
50.3906,123.5577
50.4093,123.5498
50.4268,123.5403
50.4429,123.5293
50.4575,123.5169
50.4706,123.5031
50.4821,123.4880
50.4921,123.4717
50.5003,123.4543
50.5069,123.4358
50.5116,123.4163
50.5145,123.3958
50.5155,123.3745
50.5145,123.3532
50.5116,123.3328
50.5069,123.3132
50.5003,123.2947
50.4921,123.2773
50.4821,123.2609
50.4706,123.2458
50.4575,123.2320
50.4429,123.2195
50.4268,123.2085
50.4093,123.1990
50.3906,123.1910
50.3705,123.1847
50.3493,123.1801
50.3268,123.1773
50.3033,123.1763
50.0282,123.1763
49.7362,123.1763
49.7362,122.9158
50.3224,122.9158
Z" /> 
<path style="fill:#000000; fill-opacity:1.0000; 
stroke:#000000; stroke-width:0.0000; stroke-opacity:1; 
stroke-linecap:round; stroke-linejoin:round;fill-rule:evenodd;"
d="M 51.7175,122.9164
51.7454,122.9183
51.7725,122.9213
51.7988,122.9255
51.8244,122.9307
51.8492,122.9371
51.8732,122.9445
51.8964,122.9530
51.9188,122.9625
51.9403,122.9729
51.9610,122.9842
51.9809,122.9965
51.9999,123.0097
52.0181,123.0236
52.0353,123.0385
52.0517,123.0540
52.0671,123.0704
52.0817,123.0875
52.0953,123.1052
52.1080,123.1236
52.1197,123.1427
52.1304,123.1623
52.1402,123.1826
52.1490,123.2033
52.1569,123.2246
52.1637,123.2463
52.1695,123.2685
52.1742,123.2911
52.1780,123.3141
52.1806,123.3375
52.1822,123.3612
52.1828,123.3851
52.1822,123.4091
52.1806,123.4327
52.1780,123.4561
52.1742,123.4790
52.1695,123.5016
52.1637,123.5238
52.1569,123.5455
52.1490,123.5667
52.1402,123.5874
52.1304,123.6076
52.1197,123.6272
52.1080,123.6463
52.0953,123.6647
52.0817,123.6824
52.0671,123.6994
52.0517,123.7157
52.0353,123.7313
52.0181,123.7461
51.9999,123.7601
51.9809,123.7732
51.9610,123.7854
51.9403,123.7968
51.9188,123.8072
51.8964,123.8166
51.8732,123.8251
51.8492,123.8325
51.8244,123.8389
51.7988,123.8441
51.7725,123.8483
51.7454,123.8513
51.7175,123.8531
51.6889,123.8537
51.4013,123.8537
51.4013,124.4165
51.1093,124.4165
51.1093,123.1763
51.4013,123.1763
51.4013,123.5914
51.6743,123.5914
51.6985,123.5904
51.7215,123.5876
51.7434,123.5829
51.7639,123.5765
51.7831,123.5684
51.8009,123.5586
51.8173,123.5473
51.8321,123.5344
51.8454,123.5202
51.8572,123.5045
51.8672,123.4875
51.8756,123.4693
51.8821,123.4499
51.8869,123.4294
51.8898,123.4077
51.8908,123.3851
51.8898,123.3625
51.8869,123.3407
51.8821,123.3200
51.8756,123.3004
51.8672,123.2820
51.8572,123.2648
51.8454,123.2489
51.8321,123.2344
51.8173,123.2214
51.8009,123.2098
51.7831,123.1999
51.7639,123.1916
51.7434,123.1850
51.7215,123.1802
51.6985,123.1773
51.6743,123.1763
51.4013,123.1763
51.1093,123.1763
51.1093,122.9158
51.6889,122.9158
Z" /> 
<path style="fill:#000000; fill-opacity:1.0000; 
stroke:#000000; stroke-width:0.0000; stroke-opacity:1; 
stroke-linecap:round; stroke-linejoin:round;fill-rule:evenodd;"
d="M 53.5182,124.4165
53.5182,122.9158
53.2266,122.9158
53.2266,123.5255
52.7202,123.5255
52.7202,122.9158
52.4282,122.9158
52.4282,124.4165
52.7202,124.4165
52.7202,123.7841
53.2266,123.7841
53.2266,124.4165
Z" /> 
</g><g >
<circle cx="10.2000" cy="131.0190" r="4.0000" /> 
</g>
<g style="fill:#000000; fill-opacity:1.0000; 
stroke:#000000; stroke-width:0.0212; stroke-opacity:1; 
stroke-linecap:round; stroke-linejoin:round;">
</g>
<g >
</g>
<g >
</g>
<g style="fill:#000000; fill-opacity:1.0000; 
stroke:#000000; stroke-width:0.0212; stroke-opacity:1; 
stroke-linecap:round; stroke-linejoin:round;">
</g>
<g style="fill:#000000; fill-opacity:1.0000; 
stroke:#000000; stroke-width:4.0000; stroke-opacity:1; 
stroke-linecap:round; stroke-linejoin:round;">
</g>
<g style="fill:#000000; fill-opacity:0.0; 
stroke:#000000; stroke-width:4.0000; stroke-opacity:1; 
stroke-linecap:round; stroke-linejoin:round;">
<path d="M52.1500 23.3440
L54.1500 23.3440
" />
</g>
<g >
</g>
<g style="fill:#000000; fill-opacity:0.0; 
stroke:#000000; stroke-width:4.0000; stroke-opacity:1; 
stroke-linecap:round; stroke-linejoin:round;">
<path d="M6.5500 23.3440
L8.5500 23.3440
" />
</g>
<g >
</g>
<g style="fill:#000000; fill-opacity:0.0; 
stroke:#000000; stroke-width:4.0000; stroke-opacity:1; 
stroke-linecap:round; stroke-linejoin:round;">
</g>
<g style="fill:#000000; fill-opacity:1.0000; 
stroke:#000000; stroke-width:0.0000; stroke-opacity:1; 
stroke-linecap:round; stroke-linejoin:round;">
<circle cx="23.6500" cy="131.0190" r="4.0000" /> 
</g>
<g style="fill:#000000; fill-opacity:1.0000; 
stroke:#000000; stroke-width:0.0212; stroke-opacity:1; 
stroke-linecap:round; stroke-linejoin:round;">
</g>
<g >
</g>
<g style="fill:#000000; fill-opacity:1.0000; 
stroke:#000000; stroke-width:0.0212; stroke-opacity:1; 
stroke-linecap:round; stroke-linejoin:round;">
</g>
<g style="fill:#000000; fill-opacity:1.0000; 
stroke:#000000; stroke-width:0.0000; stroke-opacity:1; 
stroke-linecap:round; stroke-linejoin:round;">
<circle cx="37.1000" cy="116.0540" r="4.0000" /> 
</g>
<g style="fill:#000000; fill-opacity:1.0000; 
stroke:#000000; stroke-width:0.0212; stroke-opacity:1; 
stroke-linecap:round; stroke-linejoin:round;">
</g>
<g >
</g>
<g style="fill:#000000; fill-opacity:1.0000; 
stroke:#000000; stroke-width:0.0212; stroke-opacity:1; 
stroke-linecap:round; stroke-linejoin:round;">
</g>
<g style="fill:#000000; fill-opacity:1.0000; 
stroke:#000000; stroke-width:0.0000; stroke-opacity:1; 
stroke-linecap:round; stroke-linejoin:round;">
<circle cx="50.6000" cy="116.0540" r="4.0000" /> 
</g>
<g style="fill:#000000; fill-opacity:1.0000; 
stroke:#000000; stroke-width:0.0212; stroke-opacity:1; 
stroke-linecap:round; stroke-linejoin:round;">
</g>
<g >
</g>
<g style="fill:#000000; fill-opacity:1.0000; 
stroke:#000000; stroke-width:0.0212; stroke-opacity:1; 
stroke-linecap:round; stroke-linejoin:round;">
</g>
<g style="fill:#000000; fill-opacity:1.0000; 
stroke:#000000; stroke-width:0.0000; stroke-opacity:1; 
stroke-linecap:round; stroke-linejoin:round;">
<circle cx="9.0500" cy="57.2440" r="4.0000" /> 
</g>
<g style="fill:#000000; fill-opacity:1.0000; 
stroke:#000000; stroke-width:0.0212; stroke-opacity:1; 
stroke-linecap:round; stroke-linejoin:round;">
</g>
<g >
</g>
<g style="fill:#000000; fill-opacity:1.0000; 
stroke:#000000; stroke-width:0.0212; stroke-opacity:1; 
stroke-linecap:round; stroke-linejoin:round;">
</g>
<g style="fill:#000000; fill-opacity:1.0000; 
stroke:#000000; stroke-width:0.0000; stroke-opacity:1; 
stroke-linecap:round; stroke-linejoin:round;">
<circle cx="31.1000" cy="46.3968" r="5.0000" /> 
</g>
<g style="fill:#000000; fill-opacity:1.0000; 
stroke:#000000; stroke-width:0.0212; stroke-opacity:1; 
stroke-linecap:round; stroke-linejoin:round;">
</g>
<g >
</g>
<g style="fill:#000000; fill-opacity:1.0000; 
stroke:#000000; stroke-width:0.0212; stroke-opacity:1; 
stroke-linecap:round; stroke-linejoin:round;">
</g>
<g style="fill:#000000; fill-opacity:1.0000; 
stroke:#000000; stroke-width:0.0000; stroke-opacity:1; 
stroke-linecap:round; stroke-linejoin:round;">
<circle cx="52.0500" cy="60.3440" r="4.2500" /> 
</g>
<g style="fill:#000000; fill-opacity:1.0000; 
stroke:#000000; stroke-width:0.0212; stroke-opacity:1; 
stroke-linecap:round; stroke-linejoin:round;">
</g>
<g >
</g>
<g style="fill:#000000; fill-opacity:1.0000; 
stroke:#000000; stroke-width:0.0212; stroke-opacity:1; 
stroke-linecap:round; stroke-linejoin:round;">
</g>
<g style="fill:#000000; fill-opacity:1.0000; 
stroke:#000000; stroke-width:0.0000; stroke-opacity:1; 
stroke-linecap:round; stroke-linejoin:round;">
<circle cx="50.6750" cy="131.0190" r="4.0000" /> 
</g>
<g style="fill:#000000; fill-opacity:1.0000; 
stroke:#000000; stroke-width:0.0212; stroke-opacity:1; 
stroke-linecap:round; stroke-linejoin:round;">
</g>
<g >
</g>
<g style="fill:#000000; fill-opacity:1.0000; 
stroke:#000000; stroke-width:0.0212; stroke-opacity:1; 
stroke-linecap:round; stroke-linejoin:round;">
</g>
<g style="fill:#000000; fill-opacity:1.0000; 
stroke:#000000; stroke-width:0.0000; stroke-opacity:1; 
stroke-linecap:round; stroke-linejoin:round;">
<circle cx="9.0500" cy="38.9300" r="4.2500" /> 
</g>
<g style="fill:#000000; fill-opacity:1.0000; 
stroke:#000000; stroke-width:0.0212; stroke-opacity:1; 
stroke-linecap:round; stroke-linejoin:round;">
</g>
<g >
</g>
<g style="fill:#000000; fill-opacity:1.0000; 
stroke:#000000; stroke-width:0.0212; stroke-opacity:1; 
stroke-linecap:round; stroke-linejoin:round;">
</g>
<g style="fill:#000000; fill-opacity:1.0000; 
stroke:#000000; stroke-width:0.0000; stroke-opacity:1; 
stroke-linecap:round; stroke-linejoin:round;">
<circle cx="10.0500" cy="98.8440" r="4.2500" /> 
</g>
<g style="fill:#000000; fill-opacity:1.0000; 
stroke:#000000; stroke-width:0.0212; stroke-opacity:1; 
stroke-linecap:round; stroke-linejoin:round;">
</g>
<g >
</g>
<g style="fill:#000000; fill-opacity:1.0000; 
stroke:#000000; stroke-width:0.0212; stroke-opacity:1; 
stroke-linecap:round; stroke-linejoin:round;">
</g>
<g style="fill:#000000; fill-opacity:1.0000; 
stroke:#000000; stroke-width:4.0000; stroke-opacity:1; 
stroke-linecap:round; stroke-linejoin:round;">
</g>
<g style="fill:#000000; fill-opacity:0.0; 
stroke:#000000; stroke-width:4.0000; stroke-opacity:1; 
stroke-linecap:round; stroke-linejoin:round;">
<path d="M52.1500 145.8440
L54.1500 145.8440
" />
</g>
<g >
</g>
<g style="fill:#000000; fill-opacity:0.0; 
stroke:#000000; stroke-width:4.0000; stroke-opacity:1; 
stroke-linecap:round; stroke-linejoin:round;">
</g>
<g style="fill:#000000; fill-opacity:1.0000; 
stroke:#000000; stroke-width:0.0000; stroke-opacity:1; 
stroke-linecap:round; stroke-linejoin:round;">
<circle cx="50.6000" cy="98.8440" r="4.2500" /> 
</g>
<g style="fill:#000000; fill-opacity:1.0000; 
stroke:#000000; stroke-width:0.0212; stroke-opacity:1; 
stroke-linecap:round; stroke-linejoin:round;">
</g>
<g >
</g>
<g style="fill:#000000; fill-opacity:1.0000; 
stroke:#000000; stroke-width:0.0212; stroke-opacity:1; 
stroke-linecap:round; stroke-linejoin:round;">
</g>
<g style="fill:#000000; fill-opacity:1.0000; 
stroke:#000000; stroke-width:4.0000; stroke-opacity:1; 
stroke-linecap:round; stroke-linejoin:round;">
</g>
<g style="fill:#000000; fill-opacity:0.0; 
stroke:#000000; stroke-width:4.0000; stroke-opacity:1; 
stroke-linecap:round; stroke-linejoin:round;">
<path d="M6.5500 145.8440
L8.5500 145.8440
" />
</g>
<g >
</g>
<g style="fill:#000000; fill-opacity:0.0; 
stroke:#000000; stroke-width:4.0000; stroke-opacity:1; 
stroke-linecap:round; stroke-linejoin:round;">
</g>
<g style="fill:#000000; fill-opacity:1.0000; 
stroke:#000000; stroke-width:0.0000; stroke-opacity:1; 
stroke-linecap:round; stroke-linejoin:round;">
<circle cx="37.1000" cy="131.0190" r="4.0000" /> 
</g>
<g style="fill:#000000; fill-opacity:1.0000; 
stroke:#000000; stroke-width:0.0212; stroke-opacity:1; 
stroke-linecap:round; stroke-linejoin:round;">
</g>
<g >
</g>
<g style="fill:#000000; fill-opacity:1.0000; 
stroke:#000000; stroke-width:0.0212; stroke-opacity:1; 
stroke-linecap:round; stroke-linejoin:round;">
</g>
<g style="fill:#000000; fill-opacity:1.0000; 
stroke:#000000; stroke-width:0.0000; stroke-opacity:1; 
stroke-linecap:round; stroke-linejoin:round;">
<circle cx="23.6000" cy="116.0340" r="4.0000" /> 
</g>
<g style="fill:#000000; fill-opacity:1.0000; 
stroke:#000000; stroke-width:0.0212; stroke-opacity:1; 
stroke-linecap:round; stroke-linejoin:round;">
</g>
<g >
</g>
<g style="fill:#000000; fill-opacity:1.0000; 
stroke:#000000; stroke-width:0.0212; stroke-opacity:1; 
stroke-linecap:round; stroke-linejoin:round;">
</g>
<g style="fill:#000000; fill-opacity:1.0000; 
stroke:#000000; stroke-width:0.0000; stroke-opacity:1; 
stroke-linecap:round; stroke-linejoin:round;">
<circle cx="10.0200" cy="79.2240" r="4.2500" /> 
</g>
<g style="fill:#000000; fill-opacity:1.0000; 
stroke:#000000; stroke-width:0.0212; stroke-opacity:1; 
stroke-linecap:round; stroke-linejoin:round;">
</g>
<g >
</g>
<g style="fill:#000000; fill-opacity:1.0000; 
stroke:#000000; stroke-width:0.0212; stroke-opacity:1; 
stroke-linecap:round; stroke-linejoin:round;">
</g>
<g style="fill:#000000; fill-opacity:1.0000; 
stroke:#000000; stroke-width:0.0000; stroke-opacity:1; 
stroke-linecap:round; stroke-linejoin:round;">
<circle cx="37.1060" cy="98.8440" r="4.2500" /> 
</g>
<g style="fill:#000000; fill-opacity:1.0000; 
stroke:#000000; stroke-width:0.0212; stroke-opacity:1; 
stroke-linecap:round; stroke-linejoin:round;">
</g>
<g >
</g>
<g style="fill:#000000; fill-opacity:1.0000; 
stroke:#000000; stroke-width:0.0212; stroke-opacity:1; 
stroke-linecap:round; stroke-linejoin:round;">
</g>
<g style="fill:#000000; fill-opacity:1.0000; 
stroke:#000000; stroke-width:0.0000; stroke-opacity:1; 
stroke-linecap:round; stroke-linejoin:round;">
<circle cx="31.0300" cy="79.2240" r="5.0000" /> 
</g>
<g style="fill:#000000; fill-opacity:1.0000; 
stroke:#000000; stroke-width:0.0212; stroke-opacity:1; 
stroke-linecap:round; stroke-linejoin:round;">
</g>
<g >
</g>
<g style="fill:#000000; fill-opacity:1.0000; 
stroke:#000000; stroke-width:0.0212; stroke-opacity:1; 
stroke-linecap:round; stroke-linejoin:round;">
</g>
<g style="fill:#000000; fill-opacity:1.0000; 
stroke:#000000; stroke-width:0.0000; stroke-opacity:1; 
stroke-linecap:round; stroke-linejoin:round;">
<circle cx="10.2000" cy="115.7040" r="4.0000" /> 
</g>
<g style="fill:#000000; fill-opacity:1.0000; 
stroke:#000000; stroke-width:0.0212; stroke-opacity:1; 
stroke-linecap:round; stroke-linejoin:round;">
</g>
<g >
</g>
<g style="fill:#000000; fill-opacity:1.0000; 
stroke:#000000; stroke-width:0.0212; stroke-opacity:1; 
stroke-linecap:round; stroke-linejoin:round;">
</g>
<g style="fill:#000000; fill-opacity:1.0000; 
stroke:#000000; stroke-width:0.0000; stroke-opacity:1; 
stroke-linecap:round; stroke-linejoin:round;">
<circle cx="50.6000" cy="79.2240" r="5.0000" /> 
</g>
<g style="fill:#000000; fill-opacity:1.0000; 
stroke:#000000; stroke-width:0.0212; stroke-opacity:1; 
stroke-linecap:round; stroke-linejoin:round;">
</g>
<g >
</g>
<g >
</g>
<g >
</g>
</g>
<g style="fill:#000000; fill-opacity:1.0000; 
stroke:#000000; stroke-width:0.0212; stroke-opacity:1; 
stroke-linecap:round; stroke-linejoin:round;">
</g>
<g style="fill:#000000; fill-opacity:1.0000; 
stroke:#000000; stroke-width:0.1000; stroke-opacity:1; 
stroke-linecap:round; stroke-linejoin:round;">
</g>
<g style="fill:#000000; fill-opacity:0.0; 
stroke:#000000; stroke-width:0.1000; stroke-opacity:1; 
stroke-linecap:round; stroke-linejoin:round;">
<path d="M60.6500 20.3440
L0.0500 20.3440
" />
<path d="M60.6500 20.3440
L60.6500 148.8440
" />
<path d="M0.0500 148.8440
L60.6500 148.8440
" />
<path d="M0.0500 20.3440
L0.0500 148.8440
" />
</g>
<g style="fill:#000000; fill-opacity:0.0; 
stroke:#000000; stroke-width:0.1200; stroke-opacity:1; 
stroke-linecap:round; stroke-linejoin:round;">
<path d="M49.7500 42.9440
L49.7500 49.7440
" />
<path d="M49.7500 49.7440
L54.3500 49.7440
" />
<path d="M54.3500 42.9440
L49.7500 42.9440
" />
<path d="M54.3500 49.7440
L54.3500 42.9440
" />
<g >
</g>
<g >
</g>
<g >
</g>
<g >
</g>
<g >
</g>
<g >
</g>
<g >
</g>
<g >
</g>
<g >
</g>
<g >
</g>
<g >
</g>
<g >
</g>
<g >
</g>
<g >
</g>
<g >
</g>
<g >
</g>
<g >
</g>
<g >
</g>
<g >
</g>
<g >
</g>
<g >
</g>
<g >
</g>
<g >
</g>
<g >
</g>
<g >
</g>
<g >
</g>
</g> 
</svg>
